<svg width="32" height="28" viewBox="0 0 32 28" fill="none" xmlns="http://www.w3.org/2000/svg">
<path d="M16 0.431641L32 8.47029L16 16.4574L4.06154 10.4799C3.32308 11.2529 2.78974 12.4896 2.70769 13.8809H2.99487C3.32308 13.8809 3.56923 14.1901 3.56923 14.6023V16.5089C3.56923 16.9212 3.32308 17.2304 2.99487 17.2304H2.78974L3.56923 27.2271C3.61026 27.6394 3.3641 28.0001 3.0359 28.0001H1.6C1.27179 28.0001 1.02564 27.6394 1.02564 27.2271L1.84615 17.2304H1.64103C1.31282 17.2304 1.02564 16.9212 1.02564 16.5089V14.6023C1.02564 14.1901 1.31282 13.8809 1.64103 13.8809H2.09231C2.17436 12.3866 2.70769 11.0983 3.44615 10.1708L0 8.47029L16 0.431641ZM15.5487 17.9002L16 18.1064L16.4513 17.9002L25.2308 13.4687L25.8872 22.5894C25.9282 23.2078 25.6 23.4655 25.1487 23.2078L21.7026 20.992C21.2513 20.6828 20.5128 20.7344 20.1026 21.0436L16.7795 23.4139C16.3692 23.7231 15.6308 23.7231 15.2205 23.4139L11.8974 21.0436C11.4872 20.7344 10.7487 20.6828 10.3385 20.992L6.85128 23.2078C6.4 23.517 6.07179 23.2078 6.11282 22.5894L6.76923 13.4687L15.5487 17.9002Z" fill="#171717"/>
</svg>
