<svg width="11" height="20" viewBox="0 0 11 20" fill="none" xmlns="http://www.w3.org/2000/svg">
<path fill-rule="evenodd" clip-rule="evenodd" d="M0.471317 0.469364C0.540985 0.399519 0.623749 0.344105 0.714866 0.306295C0.805984 0.268486 0.903666 0.249023 1.00232 0.249023C1.10097 0.249023 1.19865 0.268486 1.28977 0.306295C1.38089 0.344105 1.46365 0.399519 1.53332 0.469364L10.5333 9.46936C10.6032 9.53903 10.6586 9.62179 10.6964 9.71291C10.7342 9.80403 10.7537 9.90171 10.7537 10.0004C10.7537 10.099 10.7342 10.1967 10.6964 10.2878C10.6586 10.3789 10.6032 10.4617 10.5333 10.5314L1.53332 19.5314C1.39249 19.6722 1.20148 19.7513 1.00232 19.7513C0.803153 19.7513 0.612147 19.6722 0.471317 19.5314C0.330487 19.3905 0.251369 19.1995 0.251369 19.0004C0.251369 18.8012 0.330487 18.6102 0.471317 18.4694L8.94182 10.0004L0.471317 1.53136C0.401472 1.4617 0.346057 1.37893 0.308248 1.28781C0.270438 1.1967 0.250977 1.09901 0.250977 1.00036C0.250977 0.901713 0.270438 0.804031 0.308248 0.712914C0.346057 0.621796 0.401472 0.539033 0.471317 0.469364Z" fill="black"/>
</svg>
