<svg width="24" height="24" viewBox="0 0 24 24" fill="none" xmlns="http://www.w3.org/2000/svg">
<path d="M18.1882 16.0275L19.8337 17.124C19.9933 17.2304 20.1875 17.2717 20.3765 17.2393C20.5655 17.207 20.735 17.1034 20.85 16.95L23.1 13.95L21.9 13.05L20.0752 15.483L18.4162 14.376C18.2543 14.2678 18.0565 14.2269 17.8649 14.2619C17.6733 14.2968 17.5028 14.405 17.3895 14.5635L15 17.9092V12H13.5V19.5C13.5004 19.8977 13.6586 20.279 13.9398 20.5602C14.221 20.8414 14.6023 20.9996 15 21H22.5V19.5H15.7073L18.1882 16.0275Z" fill="#171717"/>
<path d="M1.5 15.75H12V17.25H1.5V15.75Z" fill="#171717"/>
<path d="M1.5 19.5H12V21H1.5V19.5Z" fill="#171717"/>
<path d="M8.25 12V8.25H9C9.79535 8.24901 10.5578 7.93262 11.1202 7.37022C11.6826 6.80783 11.999 6.04534 12 5.25V3H9.75C8.98199 3.00126 8.24404 3.29864 7.68975 3.83025C7.30137 3.12508 6.73102 2.53694 6.0381 2.1271C5.34518 1.71726 4.55505 1.5007 3.75 1.5H1.5V3.75C1.50139 4.94305 1.97594 6.08683 2.81955 6.93045C3.66317 7.77406 4.80695 8.24861 6 8.25H6.75V12H1.5V13.5H12V12H8.25ZM9.75 4.5H10.5V5.25C10.4996 5.6477 10.3414 6.029 10.0602 6.31022C9.779 6.59144 9.3977 6.7496 9 6.75H8.25V6C8.2504 5.6023 8.40856 5.221 8.68978 4.93978C8.971 4.65856 9.3523 4.5004 9.75 4.5ZM6 6.75C5.20466 6.74901 4.44217 6.43262 3.87978 5.87022C3.31738 5.30783 3.00099 4.54534 3 3.75V3H3.75C4.54534 3.00099 5.30783 3.31738 5.87022 3.87978C6.43262 4.44217 6.74901 5.20466 6.75 6V6.75H6Z" fill="#171717"/>
</svg>
