<svg width="24" height="21" viewBox="0 0 24 21" fill="none" xmlns="http://www.w3.org/2000/svg">
<path d="M12 0.32373L24 6.35272L12 12.3431L3.04615 7.85996C2.49231 8.43967 2.09231 9.36721 2.03077 10.4107H2.24615C2.49231 10.4107 2.67692 10.6426 2.67692 10.9517V12.3817C2.67692 12.6909 2.49231 12.9228 2.24615 12.9228H2.09231L2.67692 20.4203C2.70769 20.7295 2.52308 21.0001 2.27692 21.0001H1.2C0.953846 21.0001 0.769231 20.7295 0.769231 20.4203L1.38462 12.9228H1.23077C0.984615 12.9228 0.769231 12.6909 0.769231 12.3817V10.9517C0.769231 10.6426 0.984615 10.4107 1.23077 10.4107H1.56923C1.63077 9.28991 2.03077 8.32373 2.58462 7.62808L0 6.35272L12 0.32373ZM11.6615 13.4252L12 13.5798L12.3385 13.4252L18.9231 10.1015L19.4154 16.9421C19.4462 17.4059 19.2 17.5991 18.8615 17.4059L16.2769 15.744C15.9385 15.5121 15.3846 15.5508 15.0769 15.7827L12.5846 17.5604C12.2769 17.7923 11.7231 17.7923 11.4154 17.5604L8.92308 15.7827C8.61539 15.5508 8.06154 15.5121 7.75385 15.744L5.13846 17.4059C4.8 17.6377 4.55385 17.4059 4.58462 16.9421L5.07692 10.1015L11.6615 13.4252Z" fill="#171717"/>
</svg>
