<svg width="19" height="16" viewBox="0 0 19 16" fill="none" xmlns="http://www.w3.org/2000/svg">
<path d="M1 0.250032C0.801088 0.250032 0.610322 0.329049 0.46967 0.469702C0.329018 0.610354 0.25 0.801119 0.25 1.00003C0.25 1.19894 0.329018 1.38971 0.46967 1.53036C0.610322 1.67101 0.801088 1.75003 1 1.75003H2.665L4.633 9.62503C4.80025 10.2925 5.398 10.75 6.08575 10.75H15.4382C16.1155 10.75 16.6908 10.3 16.8685 9.64753L18.8125 2.50003H17.242L15.4375 9.25003H6.085L4.11775 1.37503C4.03649 1.05195 3.84916 0.76549 3.58576 0.561517C3.32236 0.357544 2.99813 0.24786 2.665 0.250032H1ZM14.5 10.75C13.2662 10.75 12.25 11.7663 12.25 13C12.25 14.2338 13.2662 15.25 14.5 15.25C15.7338 15.25 16.75 14.2338 16.75 13C16.75 11.7663 15.7338 10.75 14.5 10.75ZM7.75 10.75C6.51625 10.75 5.5 11.7663 5.5 13C5.5 14.2338 6.51625 15.25 7.75 15.25C8.98375 15.25 10 14.2338 10 13C10 11.7663 8.98375 10.75 7.75 10.75ZM10 0.250032V4.00003H7.75L10.75 7.00003L13.75 4.00003H11.5V0.250032H10ZM7.75 12.25C8.173 12.25 8.5 12.577 8.5 13C8.5 13.423 8.173 13.75 7.75 13.75C7.327 13.75 7 13.423 7 13C7 12.577 7.327 12.25 7.75 12.25ZM14.5 12.25C14.923 12.25 15.25 12.577 15.25 13C15.25 13.423 14.923 13.75 14.5 13.75C14.077 13.75 13.75 13.423 13.75 13C13.75 12.577 14.077 12.25 14.5 12.25Z" fill="#171717"/>
</svg>
