<svg width="20" height="20" viewBox="0 0 20 20" fill="none" xmlns="http://www.w3.org/2000/svg">
<path d="M8.79973 3.39987C7.90093 3.39987 7.06933 3.68187 6.38533 4.16187C6.34093 3.47427 6.18373 2.87787 5.89453 2.34987C6.808 1.84436 7.83755 1.58594 8.88147 1.60017C9.92538 1.61439 10.9475 1.90075 11.8469 2.43096C12.7462 2.96117 13.4917 3.71687 14.0095 4.62338C14.5274 5.5299 14.7998 6.55585 14.7997 7.59987H17.5009C18.6601 7.59867 19.6009 8.53946 19.6009 9.69866V16.2987C19.6011 16.5746 19.5468 16.8479 19.4413 17.1029C19.3358 17.3579 19.181 17.5896 18.9859 17.7848C18.7907 17.9799 18.559 18.1347 18.304 18.2402C18.049 18.3458 17.7757 18.4 17.4997 18.3999H10.8997C10.3428 18.3999 9.80863 18.1786 9.41481 17.7848C9.02098 17.391 8.79973 16.8568 8.79973 16.2999V13.5999C7.96499 13.6009 7.13928 13.4272 6.37573 13.0899C6.39133 12.6819 6.39973 12.2535 6.39973 11.7999V11.7255C6.39973 11.5251 6.39973 11.2947 6.39613 11.0451C7.07773 11.5203 7.90573 11.7999 8.79973 11.7999V9.69987C8.79973 8.54067 9.74053 7.59987 10.8997 7.59987H12.9997C12.9997 6.48596 12.5572 5.41767 11.7696 4.63002C10.9819 3.84236 9.91364 3.39987 8.79973 3.39987ZM14.5249 9.39987C14.2341 10.3213 13.7255 11.1591 13.0423 11.8424C12.359 12.5257 11.5212 13.0342 10.5997 13.3251V16.2999C10.5997 16.4655 10.7341 16.5999 10.8997 16.5999H17.4997C17.5793 16.5999 17.6556 16.5683 17.7119 16.512C17.7681 16.4557 17.7997 16.3794 17.7997 16.2999V9.69987C17.7997 9.6203 17.7681 9.54399 17.7119 9.48773C17.6556 9.43147 17.5793 9.39987 17.4997 9.39987H14.5249ZM12.5953 9.39987H10.8997C10.8202 9.39987 10.7439 9.43147 10.6876 9.48773C10.6313 9.54399 10.5997 9.6203 10.5997 9.69987V11.3955C11.4743 10.9791 12.179 10.2745 12.5953 9.39987Z" fill="#171717"/>
<path d="M3.4959 0.549854C3.59571 0.636825 3.66395 0.754361 3.68999 0.884155C3.71604 1.01395 3.69843 1.14871 3.6399 1.26745C3.62974 1.30256 3.62449 1.33891 3.6243 1.37545C3.6243 1.45105 3.6435 1.59505 3.8247 1.77505C3.9123 1.86265 3.9795 1.92505 4.0527 1.99345C4.1127 2.04865 4.1763 2.10625 4.2567 2.18545C4.4127 2.33425 4.5771 2.50945 4.7247 2.72905C5.0307 3.18865 5.1999 3.76345 5.1999 4.59985C5.1999 5.62345 4.8207 6.49585 4.2291 7.03105L4.3059 7.11985C4.6419 7.53265 4.8375 8.06785 4.9599 8.59585C5.1999 9.63985 5.1999 10.8951 5.1999 11.7699V11.7999C5.1999 15.1443 4.7451 17.0415 4.2447 18.1263C3.9927 18.6723 3.7251 19.0203 3.4935 19.2387C3.39934 19.329 3.29552 19.4087 3.1839 19.4763C3.1328 19.507 3.07945 19.5339 3.0243 19.5567C3.0243 19.5567 2.8887 19.5999 2.7999 19.5999C2.7111 19.5999 2.5755 19.5567 2.5755 19.5567C2.51976 19.5352 2.4663 19.5083 2.4159 19.4763C2.30429 19.4087 2.20046 19.329 2.1063 19.2387C1.8747 19.0191 1.6071 18.6723 1.3551 18.1263C0.854702 17.0415 0.399902 15.1443 0.399902 11.7999V11.7699C0.399902 10.8939 0.399902 9.63985 0.639902 8.59585C0.762302 8.06785 0.957902 7.53265 1.2939 7.11985C1.3179 7.08985 1.3443 7.05985 1.3707 7.03105C0.779102 6.49585 0.399902 5.62345 0.399902 4.59985C0.399902 4.20865 0.504302 3.74185 0.648302 3.31105C0.792302 2.87905 0.993902 2.43265 1.2267 2.07265C1.5039 1.60465 1.8939 1.21225 2.1963 0.948254C2.36209 0.80245 2.53511 0.665076 2.7147 0.536654L2.7675 0.500654C2.87754 0.427306 3.00872 0.392365 3.14066 0.401262C3.27261 0.41016 3.39791 0.462397 3.4971 0.549854H3.4959Z" fill="#171717"/>
</svg>
