<svg width="24" height="24" viewBox="0 0 24 24" fill="none" xmlns="http://www.w3.org/2000/svg">
<path d="M21.8672 3.92324L12.8672 0.173245C12.593 0.0595166 12.2991 0.000976563 12.0023 0.000976562C11.7055 0.000976563 11.4117 0.0595166 11.1375 0.173245L2.1375 3.92324C1.29844 4.27012 0.75 5.09043 0.75 5.99981C0.75 15.3045 6.11719 21.7357 11.1328 23.8264C11.6859 24.0561 12.3094 24.0561 12.8625 23.8264C16.8797 22.1529 23.25 16.3732 23.25 5.99981C23.25 5.09043 22.7016 4.27012 21.8672 3.92324ZM12.0047 20.9201L12 3.06075L20.2453 6.49668C20.0906 13.5936 16.3969 18.7357 12.0047 20.9201Z" fill="#171717"/>
</svg>
