<svg width="22" height="18" viewBox="0 0 22 18" fill="none" xmlns="http://www.w3.org/2000/svg">
<path d="M8 12C5.33 12 0 13.34 0 16V18H16V16C16 13.34 10.67 12 8 12ZM12.75 5H12C12 3.52 11.19 2.25 10 1.55V2.5C10 2.78 9.78 3 9.5 3C9.22 3 9 2.78 9 2.5V1.14C8.68 1.06 8.35 1 8 1C7.65 1 7.32 1.06 7 1.14V2.5C7 2.78 6.78 3 6.5 3C6.22 3 6 2.78 6 2.5V1.55C4.81 2.25 4 3.52 4 5H3.25V6H12.75V5ZM8 10C9.86 10 11.41 8.72 11.86 7H4.14C4.59 8.72 6.14 10 8 10ZM20.98 3.23L21.91 2.4L21.16 1.1L19.97 1.49C19.83 1.38 19.67 1.29 19.5 1.22L19.25 0H17.75L17.5 1.22C17.33 1.29 17.17 1.38 17.02 1.49L15.84 1.1L15.09 2.4L16.02 3.23C16 3.4 16 3.58 16.02 3.75L15.09 4.6L15.84 5.9L17.04 5.52C17.17 5.62 17.32 5.7 17.47 5.77L17.75 7H19.25L19.52 5.78C19.68 5.71 19.82 5.63 19.96 5.53L21.15 5.91L21.9 4.61L20.97 3.76C21 3.57 20.99 3.4 20.98 3.23ZM18.5 4.75C18.1685 4.75 17.8505 4.6183 17.6161 4.38388C17.3817 4.14946 17.25 3.83152 17.25 3.5C17.25 3.16848 17.3817 2.85054 17.6161 2.61612C17.8505 2.3817 18.1685 2.25 18.5 2.25C18.8315 2.25 19.1495 2.3817 19.3839 2.61612C19.6183 2.85054 19.75 3.16848 19.75 3.5C19.75 3.83152 19.6183 4.14946 19.3839 4.38388C19.1495 4.6183 18.8315 4.75 18.5 4.75ZM18.4 7.79L17.55 8.07C17.45 7.99 17.34 7.93 17.22 7.88L17.04 7H15.97L15.79 7.87C15.67 7.92 15.55 7.99 15.45 8.06L14.61 7.78L14.07 8.71L14.73 9.3C14.72 9.43 14.72 9.55 14.73 9.67L14.07 10.28L14.61 11.21L15.47 10.94C15.57 11.01 15.67 11.07 15.78 11.12L15.96 12H17.03L17.22 11.13C17.33 11.08 17.44 11.02 17.54 10.95L18.39 11.22L18.93 10.29L18.27 9.68C18.28 9.55 18.28 9.43 18.27 9.31L18.93 8.72L18.4 7.79ZM16.5 10.39C16.01 10.39 15.61 9.99 15.61 9.5C15.61 9.01 16.01 8.61 16.5 8.61C16.99 8.61 17.39 9.01 17.39 9.5C17.39 9.99 16.99 10.39 16.5 10.39Z" fill="#171717"/>
</svg>
