<svg width="24" height="24" viewBox="0 0 24 24" fill="none" xmlns="http://www.w3.org/2000/svg">
<path d="M23.3333 3C23.7017 3 24 2.66438 24 2.25V0.75C24 0.335625 23.7017 0 23.3333 0H0.666667C0.298333 0 0 0.335625 0 0.75V2.25C0 2.66438 0.298333 3 0.666667 3H1.3325V21H0.666667C0.298333 21 0 21.3356 0 21.75V23.25C0 23.6644 0.298333 24 0.666667 24H10.6667V20.25C10.6667 19.8375 10.9667 19.5 11.3333 19.5H12.6667C13.0333 19.5 13.3333 19.8375 13.3333 20.25V24H23.3333C23.7017 24 24 23.6644 24 23.25V21.75C24 21.3356 23.7017 21 23.3333 21H22.6667V3H23.3333ZM10.6667 5.1C10.6667 4.8 10.9333 4.5 11.2 4.5H12.8C13.0667 4.5 13.3333 4.8 13.3333 5.1V6.9C13.3333 7.2 13.0667 7.5 12.8 7.5H11.2C10.9333 7.5 10.6667 7.2 10.6667 6.9V5.1ZM10.6667 9.6C10.6667 9.3 10.9333 9 11.2 9H12.8C13.0667 9 13.3333 9.3 13.3333 9.6V11.4C13.3333 11.7 13.0667 12 12.8 12H11.2C10.9333 12 10.6667 11.7 10.6667 11.4V9.6ZM5.33333 5.1C5.33333 4.8 5.6 4.5 5.86667 4.5H7.46667C7.73333 4.5 8 4.8 8 5.1V6.9C8 7.2 7.73333 7.5 7.46667 7.5H5.86667C5.6 7.5 5.33333 7.2 5.33333 6.9V5.1ZM7.46667 12H5.86667C5.6 12 5.33333 11.7 5.33333 11.4V9.6C5.33333 9.3 5.6 9 5.86667 9H7.46667C7.73333 9 8 9.3 8 9.6V11.4C8 11.7 7.73333 12 7.46667 12ZM8 18C8 15.5147 9.79083 13.5 12 13.5C14.2092 13.5 16 15.5147 16 18H8ZM18.6667 11.4C18.6667 11.7 18.4 12 18.1333 12H16.5333C16.2667 12 16 11.7 16 11.4V9.6C16 9.3 16.2667 9 16.5333 9H18.1333C18.4 9 18.6667 9.3 18.6667 9.6V11.4ZM18.6667 6.9C18.6667 7.2 18.4 7.5 18.1333 7.5H16.5333C16.2667 7.5 16 7.2 16 6.9V5.1C16 4.8 16.2667 4.5 16.5333 4.5H18.1333C18.4 4.5 18.6667 4.8 18.6667 5.1V6.9Z" fill="#171717"/>
</svg>
