<svg width="24" height="24" viewBox="0 0 24 24" fill="none" xmlns="http://www.w3.org/2000/svg">
<path d="M11.9999 5.3906L2.89451 14.4239C2.82701 14.4923 2.74076 14.5242 2.66659 14.5809V23.25C2.66659 23.4489 2.73683 23.6397 2.86186 23.7803C2.98688 23.921 3.15645 24 3.33326 24H20.6666C20.8434 24 21.013 23.921 21.138 23.7803C21.263 23.6397 21.3333 23.4489 21.3333 23.25V14.5828C21.2624 14.5284 21.1783 14.4975 21.1141 14.4328L11.9999 5.3906ZM15.9999 17.625C15.9999 17.7244 15.9648 17.8198 15.9023 17.8901C15.8398 17.9605 15.755 18 15.6666 18H13.3333V20.625C13.3333 20.7244 13.2981 20.8198 13.2356 20.8901C13.1731 20.9605 13.0883 21 12.9999 21H10.9999C10.9115 21 10.8267 20.9605 10.7642 20.8901C10.7017 20.8198 10.6666 20.7244 10.6666 20.625V18H8.33326C8.24485 18 8.16007 17.9605 8.09756 17.8901C8.03505 17.8198 7.99993 17.7244 7.99993 17.625V15.375C7.99993 15.2755 8.03505 15.1801 8.09756 15.1098C8.16007 15.0395 8.24485 15 8.33326 15H10.6666V12.375C10.6666 12.2755 10.7017 12.1801 10.7642 12.1098C10.8267 12.0395 10.9115 12 10.9999 12H12.9999C13.0883 12 13.1731 12.0395 13.2356 12.1098C13.2981 12.1801 13.3333 12.2755 13.3333 12.375V15H15.6666C15.755 15 15.8398 15.0395 15.9023 15.1098C15.9648 15.1801 15.9999 15.2755 15.9999 15.375V17.625ZM23.7787 11.0756L13.1145 0.481853C12.8093 0.171401 12.4125 -0.000488281 12.001 -0.000488281C11.5895 -0.000488281 11.1927 0.171401 10.8874 0.481853L0.220759 11.0756C0.155602 11.1414 0.10261 11.221 0.0648108 11.3099C0.027012 11.3988 0.00514712 11.4952 0.000465209 11.5935C-0.0042167 11.6919 0.0083761 11.7904 0.0375242 11.8833C0.0666723 11.9762 0.111805 12.0617 0.170343 12.135L1.06243 13.2515C1.12094 13.3248 1.19171 13.3845 1.2707 13.427C1.3497 13.4695 1.43537 13.4941 1.52281 13.4994C1.61026 13.5046 1.69777 13.4905 1.78035 13.4577C1.86293 13.4249 1.93896 13.3741 2.00409 13.3083L11.5591 3.82638C11.6809 3.7055 11.8377 3.6388 12.0001 3.6388C12.1626 3.6388 12.3194 3.7055 12.4412 3.82638L21.9962 13.3078C22.0613 13.3736 22.1373 13.4244 22.2199 13.4572C22.3025 13.49 22.39 13.5042 22.4775 13.4989C22.5649 13.4936 22.6506 13.469 22.7296 13.4265C22.8086 13.384 22.8793 13.3244 22.9378 13.2511L23.8295 12.1345C23.9476 11.9865 24.0085 11.7918 23.999 11.5932C23.9894 11.3946 23.9102 11.2085 23.7787 11.0756Z" fill="#171717"/>
</svg>
