<svg width="30" height="20" viewBox="0 0 30 20" fill="none" xmlns="http://www.w3.org/2000/svg">
<path d="M1.51844 2.4575L13.5184 8.9039C13.9216 9.1199 14.4432 9.2223 14.968 9.2223C15.4928 9.2223 16.0144 9.1199 16.4176 8.9039L28.4176 2.4575C29.2 2.0367 29.9392 0.399902 28.504 0.399902H1.43364C-0.00156081 0.399902 0.737639 2.0367 1.51844 2.4575ZM28.7808 5.9823L16.4176 12.4255C15.8736 12.7103 15.4928 12.7439 14.968 12.7439C14.4432 12.7439 14.0624 12.7103 13.5184 12.4255C12.9744 12.1407 2.10564 6.4431 1.21764 5.9807C0.593639 5.6543 0.600039 6.0367 0.600039 6.3311V17.9999C0.600039 18.6719 1.50564 19.5999 2.20004 19.5999H27.8C28.4944 19.5999 29.4 18.6719 29.4 17.9999V6.3327C29.4 6.0383 29.4064 5.6559 28.7808 5.9823Z" fill="#171717"/>
</svg>
