<svg width="275" height="212" viewBox="0 0 275 212" fill="none" xmlns="http://www.w3.org/2000/svg">
<path d="M182.355 63.3453C182.001 57.8039 179.669 52.5156 176.401 48.0342C174.758 45.7729 172.821 43.5763 172.232 40.8439C171.455 37.2046 173.18 33.0294 171.19 29.8788C169.794 27.6587 166.955 26.74 165.365 24.6554C163.652 22.4176 163.693 19.326 162.68 16.6995C161.667 14.0731 158.252 11.8118 156.161 13.708C155.761 8.75543 156.562 5.97588 152.339 3.36711C148.117 0.758339 139.79 2.01855 138.171 6.71199C134.578 3.70866 128.012 0.823115 123.884 3.02555C121.34 4.39177 119.391 6.62955 117.024 8.29021C113.355 10.8578 108.873 11.9236 104.769 13.7315C100.664 15.5394 96.6069 18.5368 95.6529 22.9182C94.9522 26.1512 96.0828 29.549 95.4881 32.7997C94.9816 35.538 93.3092 37.8877 92.0254 40.3551C90.9476 42.4229 90.125 44.6139 89.5756 46.88C88.5039 51.2966 89.0986 56.9912 93.2208 58.9051C91.7341 59.3294 90.4441 60.2634 89.577 61.5434C88.7098 62.8235 88.3208 64.3679 88.4781 65.906C88.6354 67.444 89.3291 68.8777 90.4374 69.9557C91.5457 71.0336 92.9981 71.6872 94.54 71.8017L87.597 84.3862C86.9551 85.564 86.2896 86.836 86.5075 88.1492C86.8138 89.9807 88.7983 91.1349 90.6297 91.1525C92.4612 91.1702 94.2278 90.3399 95.8885 89.5272C96.4739 90.6197 97.3515 91.528 98.4233 92.1504C99.4951 92.7729 100.719 93.0851 101.958 93.0521C103.197 93.0191 104.402 92.6422 105.44 91.9636C106.477 91.285 107.305 90.3313 107.831 89.2092C108.532 90.5013 109.567 91.5814 110.827 92.3366C112.088 93.0918 113.529 93.4943 114.999 93.5022C116.469 93.51 117.913 93.1228 119.182 92.3811C120.451 91.6393 121.497 90.5703 122.212 89.2858L150.408 82.808L171.667 80.847C174.752 80.5585 178.191 80.0815 180.082 77.6317C181.307 76.0358 181.589 73.9276 181.848 71.9313C182.278 69.0906 182.447 66.2167 182.355 63.3453Z" fill="#263238"/>
<path d="M133.124 141.349L119.509 105.227L126.576 98.1604L126.299 95.8873C125.528 90.2045 125.245 87.8725 125.245 87.9255C125.245 87.9785 112.996 87.4132 108.579 72.0609C106.383 64.4053 105.199 51.6029 104.569 41.0854C103.98 31.6161 108.809 19.2966 118.29 19.1611L148.435 22.9477C149.825 22.9226 151.173 23.42 152.214 24.3415C153.254 25.263 153.91 26.5414 154.053 27.9238L159.277 91.2939L163.275 94.7154L168.092 138.605L133.124 141.349Z" fill="#FFBE9D"/>
<path d="M111.5 53.2991C111.564 53.8196 111.827 54.2949 112.235 54.6246C112.643 54.9542 113.163 55.1125 113.685 55.0658C113.943 55.0554 114.196 54.9934 114.43 54.8834C114.663 54.7735 114.872 54.6178 115.045 54.4257C115.217 54.2335 115.349 54.0088 115.433 53.7647C115.517 53.5207 115.552 53.2622 115.534 53.0047C115.469 52.4849 115.205 52.0104 114.798 51.681C114.39 51.3516 113.871 51.1928 113.349 51.238C113.092 51.2492 112.839 51.3118 112.606 51.422C112.372 51.5322 112.164 51.6879 111.991 51.8798C111.819 52.0718 111.687 52.2962 111.603 52.5399C111.518 52.7837 111.483 53.0418 111.5 53.2991Z" fill="#263238"/>
<path d="M131.581 51.5913C131.645 52.1118 131.908 52.5871 132.316 52.9168C132.724 53.2465 133.244 53.4047 133.766 53.358C134.024 53.3469 134.277 53.2841 134.51 53.1734C134.743 53.0628 134.952 52.9065 135.124 52.7138C135.296 52.5211 135.427 52.2959 135.511 52.0515C135.594 51.8072 135.627 51.5486 135.609 51.291C135.548 50.7704 135.286 50.2943 134.879 49.9642C134.472 49.6341 133.952 49.4762 133.43 49.5244C133.172 49.5347 132.918 49.5969 132.684 49.7072C132.45 49.8175 132.241 49.9737 132.068 50.1665C131.896 50.3593 131.764 50.5848 131.68 50.8295C131.596 51.0743 131.563 51.3333 131.581 51.5913Z" fill="#263238"/>
<path d="M108.179 48.423C108.461 48.6527 109.839 47.3395 112.006 47.0804C114.174 46.8213 115.881 47.7046 116.087 47.4101C116.188 47.2806 115.875 46.8213 115.122 46.4208C114.106 45.8873 112.95 45.6816 111.812 45.8319C110.688 45.9644 109.635 46.4535 108.809 47.2276C108.208 47.8224 108.043 48.3053 108.179 48.423Z" fill="#263238"/>
<path d="M129.655 46.6563C129.938 46.886 131.322 45.5728 133.483 45.3136C135.644 45.0545 137.358 45.9379 137.564 45.6434C137.664 45.5139 137.352 45.0545 136.598 44.6541C135.582 44.1206 134.426 43.9149 133.289 44.0652C132.165 44.2009 131.114 44.6895 130.285 45.4609C129.685 46.0556 129.52 46.5385 129.655 46.6563Z" fill="#263238"/>
<path d="M123.631 62.1498C123.631 62.0261 122.259 61.9555 120.045 61.9496C119.456 61.9496 118.949 61.9142 118.808 61.5491C118.694 60.9833 118.754 60.3963 118.979 59.8649L120.092 55.4659C121.623 49.2002 122.653 44.0827 122.4 44.018C122.147 43.9532 120.704 48.9882 119.173 55.2539C118.814 56.7968 118.466 58.2631 118.131 59.6706C118.001 60.3242 117.73 61.078 118.131 61.873C118.235 62.0574 118.38 62.2158 118.554 62.3361C118.729 62.4565 118.928 62.5357 119.138 62.5679C119.454 62.6088 119.775 62.6088 120.092 62.5679C122.253 62.4383 123.631 62.2735 123.631 62.1498Z" fill="#263238"/>
<path d="M125.263 87.9079C132.652 87.1112 139.675 84.2796 145.55 79.7283C145.55 79.7283 141.622 91.294 125.763 91.7592L125.263 87.9079Z" fill="#89544C"/>
<path d="M124.361 67.7032C125.539 66.3664 128.796 64.2406 129.868 63.9756C130.939 63.7106 130.875 65.0238 131.634 65.9542C132.019 66.4626 132.257 67.067 132.323 67.7014C132.388 68.3358 132.278 68.976 132.005 69.5523C131.34 70.8655 129.938 72.0021 128.66 71.8608C127.382 71.7194 126.181 70.4415 125.127 69.7054C124.81 69.5227 124.54 69.2687 124.338 68.9634C124.235 68.7934 124.176 68.6 124.168 68.4012C124.16 68.2025 124.202 68.0049 124.291 67.8269" fill="#89544C"/>
<path d="M127.347 38.6947C127.63 39.2542 129.756 38.6947 132.329 38.6947C134.902 38.6947 137.04 39.1305 137.305 38.5593C137.429 38.2884 137.005 37.782 136.127 37.3167C134.944 36.7402 133.639 36.4555 132.323 36.4864C131.006 36.4909 129.708 36.8078 128.537 37.411C127.63 37.9056 127.217 38.4238 127.347 38.6947Z" fill="#263238"/>
<path d="M107.879 40.8498C108.32 41.2915 109.745 40.6025 111.536 40.3552C113.326 40.1078 114.88 40.2786 115.163 39.7251C115.287 39.4542 114.986 38.989 114.268 38.6062C113.307 38.156 112.233 38.0024 111.184 38.165C110.136 38.3275 109.159 38.7989 108.379 39.519C107.826 40.102 107.684 40.6496 107.879 40.8498Z" fill="#263238"/>
<path d="M152.34 47.4983C152.54 47.3687 160.684 43.5645 161.762 52.3095C162.84 61.0545 153.806 60.3125 153.759 60.0828C153.712 59.8531 152.34 47.4983 152.34 47.4983Z" fill="#FFBE9D"/>
<path d="M156.02 56.432C156.055 56.3967 156.185 56.5204 156.456 56.6028C156.837 56.7157 157.247 56.6756 157.598 56.4909C158.482 56.0375 159.082 54.4769 158.929 52.8987C158.864 52.1452 158.628 51.4163 158.24 50.7669C158.126 50.5039 157.949 50.2725 157.726 50.093C157.502 49.9134 157.238 49.791 156.956 49.7364C156.775 49.7129 156.591 49.7528 156.435 49.8493C156.28 49.9459 156.162 50.0932 156.103 50.2664C156.02 50.5255 156.103 50.6904 156.05 50.7139C155.997 50.7375 155.843 50.5903 155.873 50.2193C155.891 49.9961 155.99 49.787 156.15 49.6304C156.257 49.5249 156.384 49.4418 156.523 49.3862C156.663 49.3306 156.812 49.3035 156.962 49.3065C157.334 49.3319 157.692 49.454 158.002 49.6605C158.312 49.8671 158.563 50.1511 158.729 50.4843C159.193 51.1898 159.476 51.9988 159.553 52.8398C159.712 54.6065 159.012 56.3732 157.787 56.8855C157.56 56.9825 157.314 57.0271 157.067 57.0158C156.82 57.0046 156.579 56.9379 156.362 56.8207C156.073 56.6382 156.02 56.4497 156.02 56.432Z" fill="#89544C"/>
<path d="M160.095 58.9404C160.095 58.9758 160.336 59.017 160.713 59.229C161.237 59.5389 161.65 60.0069 161.891 60.5658C162.079 60.9636 162.159 61.4042 162.122 61.8428C162.085 62.2814 161.932 62.7023 161.679 63.0626C161.371 63.5031 160.947 63.8507 160.455 64.0677C159.963 64.2847 159.421 64.3627 158.888 64.2934C158.404 64.1991 157.948 63.993 157.558 63.6917C157.168 63.3904 156.853 63.0022 156.639 62.5578C156.425 62.1135 156.318 61.6254 156.326 61.1323C156.334 60.6393 156.457 60.1549 156.685 59.7178C156.964 59.1692 157.368 58.6934 157.863 58.328C158.069 58.2133 158.266 58.0834 158.452 57.9393C158.218 57.9766 157.994 58.0651 157.798 58.1984C157.241 58.5375 156.782 59.0166 156.467 59.5882C156.221 60.0144 156.071 60.4892 156.027 60.9794C155.983 61.4697 156.047 61.9636 156.214 62.4266C156.419 63.0007 156.77 63.5114 157.233 63.9081C157.695 64.3047 158.254 64.5736 158.852 64.688C159.459 64.7696 160.077 64.68 160.636 64.4292C161.195 64.1785 161.672 63.7765 162.015 63.2688C162.318 62.8261 162.484 62.3037 162.492 61.7671C162.491 61.3066 162.382 60.8528 162.174 60.4421C161.888 59.846 161.403 59.3688 160.802 59.0936C160.586 58.9746 160.34 58.9214 160.095 58.9404Z" fill="#455A64"/>
<path d="M127.753 71.6014C127.753 71.5719 127.847 71.6014 127.965 71.6426C128.119 71.7296 128.281 71.8025 128.448 71.8605C128.758 71.9132 129.075 71.9001 129.38 71.8219C129.684 71.7438 129.969 71.6025 130.215 71.4071C130.603 71.2031 130.955 70.9365 131.257 70.618C131.603 70.2604 131.887 69.8486 132.099 69.399C132.314 68.9313 132.374 68.4072 132.27 67.9032C132.125 67.3432 131.85 66.8249 131.469 66.3897C130.692 65.4181 129.702 64.5936 128.784 64.6643C128.308 64.7331 127.855 64.9105 127.459 65.1825C127.041 65.4475 126.64 65.7125 126.281 65.954C124.862 66.9139 124.302 67.8207 124.185 67.7618C124.067 67.703 124.185 67.4556 124.461 67.0199C124.848 66.4219 125.327 65.8892 125.881 65.4416C126.222 65.1531 126.599 64.8527 127.058 64.5524C127.541 64.1677 128.115 63.9159 128.725 63.8222C129.435 63.7792 130.138 63.9877 130.709 64.4111C131.276 64.8095 131.78 65.2898 132.205 65.8362C132.676 66.3827 133.008 67.0354 133.171 67.7383C133.3 68.4282 133.201 69.1414 132.888 69.77C132.752 70.0491 132.584 70.3118 132.388 70.5532C132.206 70.774 132.009 70.9826 131.799 71.1774C131.423 71.5283 130.986 71.8077 130.509 72.0018C130.139 72.1881 129.741 72.3152 129.331 72.3787C129.061 72.4235 128.783 72.3922 128.529 72.2882C128.276 72.1842 128.056 72.0116 127.895 71.7898C127.794 71.6897 127.753 71.6249 127.753 71.6014Z" fill="#263238"/>
<path d="M159.907 74.7461C159.947 74.7386 159.989 74.7386 160.03 74.7461L160.372 74.7815C160.821 74.8108 161.273 74.8009 161.72 74.752C163.417 74.5508 165.016 73.8544 166.32 72.7498C168.286 70.9986 169.664 68.6828 170.265 66.1189C170.689 64.5734 170.887 62.9747 170.854 61.3725C170.828 59.6069 170.361 57.8758 169.494 56.3375L169.458 56.2786L169.488 56.2138C170.103 54.8826 170.444 53.4414 170.491 51.9758C170.538 50.5102 170.29 49.0501 169.761 47.6822C169.233 46.3144 168.435 45.0668 167.414 44.0134C166.394 42.9601 165.173 42.1225 163.823 41.5505L163.593 41.4504L163.787 41.2856C164.183 40.9654 164.504 40.5636 164.73 40.1078C165.263 38.9593 165.332 37.6493 164.924 36.4508C164.514 35.2772 163.875 34.1965 163.045 33.2708C162.284 32.335 161.355 31.5484 160.307 30.9506C159.316 30.3492 158.135 30.1392 156.997 30.3617L156.656 30.4441L156.838 30.1438C157.401 29.2343 157.679 28.1773 157.637 27.1087C157.594 26.04 157.234 25.0084 156.601 24.1463C155.968 23.2842 155.091 22.631 154.084 22.2705C153.078 21.91 151.986 21.8587 150.95 22.1232L150.749 22.1762L150.808 21.9759C151.118 20.8877 151.162 19.741 150.937 18.6322C150.711 17.5234 150.223 16.4849 149.513 15.6042C149.2 15.2382 148.842 14.9136 148.447 14.6384C148.083 14.3899 147.686 14.1918 147.269 14.0495C146.526 13.7932 145.737 13.6988 144.955 13.7727C144.325 13.8295 143.71 13.9928 143.135 14.2556C142.719 14.4543 142.332 14.71 141.987 15.0153C141.712 15.2839 141.458 15.5733 141.227 15.881C141.272 15.7946 141.323 15.7119 141.38 15.6336C141.539 15.3896 141.726 15.1661 141.94 14.9682C142.29 14.6418 142.687 14.3699 143.117 14.1614C143.698 13.8847 144.321 13.7094 144.961 13.6432C145.765 13.5519 146.579 13.6383 147.346 13.8964C147.783 14.0349 148.199 14.2331 148.582 14.4853C148.993 14.7677 149.367 15.1 149.695 15.4746C150.434 16.3776 150.945 17.445 151.184 18.5866C151.424 19.7283 151.386 20.9109 151.073 22.0348L150.926 21.8876C152.011 21.6148 153.153 21.6715 154.205 22.0504C155.258 22.4294 156.174 23.1133 156.836 24.0151C157.498 24.9168 157.877 25.9954 157.924 27.1132C157.97 28.231 157.683 29.3374 157.098 30.291L156.939 30.0731C158.149 29.8274 159.407 30.0371 160.472 30.662C161.554 31.2772 162.512 32.0879 163.299 33.0529C164.155 34.0072 164.814 35.1221 165.236 36.333C165.674 37.6068 165.598 39.001 165.024 40.2197C164.784 40.7195 164.436 41.1599 164.005 41.5093L163.97 41.2502C165.358 41.835 166.614 42.6942 167.662 43.7761C168.711 44.8581 169.53 46.1406 170.07 47.5467C170.611 48.9528 170.862 50.4537 170.808 51.9592C170.755 53.4647 170.398 54.9439 169.759 56.3081V56.1844C170.649 57.7609 171.123 59.5383 171.137 61.3489C171.163 62.9749 170.951 64.596 170.507 66.1602C169.885 68.7635 168.464 71.107 166.443 72.8617C165.106 73.9739 163.464 74.6572 161.732 74.8227C161.28 74.8662 160.824 74.8662 160.372 74.8227L160.024 74.7638L159.907 74.7461Z" fill="#455A64"/>
<path d="M156.992 43.2702C156.762 37.3401 156.509 31.2864 154.383 25.7449C153.976 24.4608 153.248 23.3016 152.269 22.3765C151.394 21.722 150.39 21.2585 149.325 21.0162C147.682 20.551 147.234 19.438 145.532 19.3143C139.054 13.8082 129.756 11.9238 121.547 14.138C113.338 16.3522 106.348 22.5061 102.802 30.2382C99.3132 38.1078 99.0594 47.034 102.096 55.0892C101.548 48.7881 105.541 42.8816 110.434 38.8712C115.328 34.8609 121.182 32.1991 126.334 28.5657C126.288 29.4426 126.054 30.2993 125.648 31.0777C125.241 31.856 124.672 32.5378 123.979 33.0766C128.066 31.9813 132.223 30.8624 135.904 28.8248C136.733 28.3727 137.534 27.8692 138.301 27.3173C138.383 28.2794 138.649 29.2169 139.084 30.0792C140.468 32.7939 143.436 34.2426 145.697 36.286C145.991 36.5167 146.227 36.8132 146.386 37.1517C146.528 37.7108 146.489 38.3005 146.274 38.8359C145.696 40.5979 145.495 42.462 145.685 44.3067C145.962 46.1322 146.987 47.9283 148.63 48.7233C148.017 49.687 147.721 50.8178 147.782 51.958C147.843 53.0982 148.259 54.1908 148.971 55.0833C149.163 55.3557 149.444 55.5518 149.766 55.6369C150.302 55.7134 150.75 55.2482 151.056 54.8006C151.96 53.4974 152.58 52.0188 152.876 50.4605C152.92 49.7965 153.122 49.1527 153.464 48.582C154.053 47.8341 155.149 47.681 155.873 47.0509C157.015 46.1617 157.045 44.6188 156.992 43.2702Z" fill="#263238"/>
<path d="M110.935 29.567C110.961 29.4168 111.001 29.269 111.052 29.1253C111.204 28.7121 111.402 28.3171 111.641 27.9476C112.501 26.5658 113.855 25.5635 115.428 25.1445L115.339 25.2505C115.431 24.399 115.607 23.5587 115.864 22.7418C116.163 21.8276 116.558 20.9474 117.041 20.1154C118.163 18.2455 119.731 16.6833 121.605 15.5692C122.444 15.0587 123.347 14.6626 124.291 14.3914C124.757 14.2712 125.242 14.2353 125.722 14.2854C126.206 14.3359 126.654 14.5672 126.976 14.9332H126.746C127.807 13.5638 129.169 12.4575 130.727 11.7002C132.117 11.0112 133.566 10.7226 134.69 11.0583C135.13 11.1784 135.535 11.4012 135.872 11.7083C136.209 12.0155 136.468 12.3982 136.628 12.8249C136.707 13.0519 136.745 13.2913 136.74 13.5316C136.743 13.6136 136.731 13.6954 136.704 13.7731C136.703 13.461 136.645 13.1517 136.534 12.8603C136.363 12.4654 136.103 12.1151 135.775 11.8364C135.448 11.5577 135.06 11.3579 134.643 11.2526C133.571 10.9582 132.188 11.2526 130.839 11.9416C129.327 12.6981 128.006 13.7873 126.976 15.1275L126.864 15.2688L126.752 15.1334C126.222 14.4974 125.227 14.4797 124.361 14.6976C123.448 14.9588 122.573 15.339 121.758 15.8283C119.93 16.9208 118.396 18.4429 117.289 20.2626C116.807 21.0729 116.413 21.9315 116.111 22.8243C115.85 23.6213 115.666 24.4417 115.563 25.274V25.3388H115.487C113.956 25.7278 112.624 26.6698 111.747 27.9829C111.431 28.4864 111.159 29.0164 110.935 29.567Z" fill="#455A64"/>
<path d="M100.305 82.2427L100.158 82.4664L99.687 83.1319L99.6516 83.179V83.1201C99.0245 81.2204 98.7083 79.2318 98.7153 77.2312C98.7148 73.6798 99.6796 70.195 101.507 67.1495L101.56 67.3144C100.406 66.7696 99.4298 65.9113 98.7415 64.8376C98.0531 63.764 97.6808 62.5183 97.6671 61.2429C97.6499 60.5492 97.7535 59.8577 97.9733 59.1995C98.0964 58.8867 98.191 58.5635 98.256 58.2337C98.2761 58.078 98.2629 57.9197 98.2173 57.7694C98.1716 57.6192 98.0944 57.4803 97.991 57.3622C97.7562 57.1057 97.5023 56.8675 97.2313 56.6496C96.9577 56.4075 96.6982 56.1499 96.454 55.8782C95.9593 55.3231 95.525 54.7171 95.1584 54.0703C94.1844 52.3335 93.7504 50.3457 93.9119 48.361C94.0735 46.3764 94.8232 44.4849 96.0653 42.9285C96.3216 42.6026 96.599 42.2937 96.8956 42.004C97.1901 41.7213 97.4845 41.4445 97.4845 41.0971C97.423 40.7065 97.3143 40.3249 97.1606 39.9606C97.022 39.5621 96.9098 39.1548 96.825 38.7416C96.6441 37.9078 96.5572 37.0565 96.5658 36.2035C96.5619 34.4035 96.9496 32.6241 97.7021 30.989C98.4546 29.3538 99.5539 27.902 100.924 26.7341C101.583 26.1747 102.325 25.733 102.649 24.9675C102.807 24.5876 102.927 24.1931 103.008 23.7897C103.114 23.3834 103.25 22.9829 103.368 22.5825C103.915 21.0403 104.753 19.6171 105.835 18.3896C107.832 16.0933 110.517 14.503 113.49 13.8552C114.83 13.5885 116.201 13.521 117.56 13.655C117.862 13.6808 118.165 13.6238 118.437 13.4901C118.685 13.3182 118.914 13.1209 119.12 12.9012L119.803 12.2593L120.516 11.6704C121.429 10.9836 122.416 10.4028 123.46 9.93908C124.395 9.53485 125.368 9.22322 126.364 9.00864C127.956 8.65459 129.595 8.56506 131.216 8.74364C132.243 8.86423 133.255 9.09725 134.231 9.43852L134.973 9.73297L135.226 9.84486L134.961 9.76241L134.213 9.49742C133.236 9.20253 132.232 9.00527 131.216 8.90853C129.608 8.75411 127.985 8.8595 126.411 9.22064C125.431 9.44356 124.475 9.75905 123.555 10.1629C122.528 10.6284 121.556 11.2071 120.657 11.8883L119.962 12.4772L119.291 13.1132C119.074 13.3552 118.829 13.5707 118.561 13.7551C118.254 13.9133 117.909 13.9827 117.566 13.9553C117.23 13.9553 116.906 13.9082 116.576 13.9082C116.247 13.8876 115.916 13.8876 115.587 13.9082C114.904 13.943 114.225 14.0296 113.555 14.1673C110.647 14.819 108.024 16.3854 106.07 18.6369C105.013 19.8442 104.197 21.2437 103.668 22.7592C103.556 23.1478 103.42 23.5365 103.32 23.9369C103.234 24.3562 103.107 24.7663 102.944 25.1618C102.573 26.0098 101.766 26.4809 101.136 27.0227C99.8033 28.1637 98.7343 29.5802 98.0023 31.1743C97.2703 32.7684 96.8927 34.5023 96.8956 36.2565C96.8879 37.0877 96.9728 37.9173 97.1489 38.7298C97.233 39.1291 97.3432 39.5226 97.4786 39.9076C97.6473 40.3043 97.7603 40.7224 97.8143 41.1501C97.7765 41.3726 97.6952 41.5855 97.5749 41.7765C97.4547 41.9675 97.2979 42.1329 97.1135 42.2631C96.8277 42.5458 96.5584 42.8447 96.3067 43.1582C94.8739 44.9599 94.1246 47.2103 94.1914 49.5113C94.2583 51.8123 95.1369 54.0155 96.6719 55.731C96.9062 55.9967 97.1559 56.2483 97.4197 56.4847C97.704 56.7106 97.9681 56.9608 98.2088 57.2326C98.3356 57.3794 98.43 57.5512 98.4858 57.7369C98.5416 57.9226 98.5576 58.118 98.5327 58.3103C98.467 58.6591 98.3664 59.0004 98.2324 59.3291C98.0234 59.9573 97.9219 60.6163 97.9321 61.2783C97.9382 62.51 98.2904 63.7152 98.9485 64.7564C99.6065 65.7976 100.544 66.633 101.654 67.1671L101.772 67.2201L101.707 67.332C100.696 68.9748 99.9414 70.7619 99.4691 72.632C98.5797 76.1105 98.6591 79.766 99.6987 83.2026H99.6457L100.135 82.5548C100.184 82.447 100.241 82.3427 100.305 82.2427Z" fill="#455A64"/>
<path d="M152.804 4.45096C151.88 4.3331 150.95 4.26822 150.019 4.25663C149.02 4.2731 148.036 4.5104 147.139 4.95152C146.042 5.48444 145.197 6.4248 144.784 7.57207C144.719 7.77974 144.672 7.99248 144.642 8.20807V8.34939H144.507C143.361 8.3048 142.22 8.51813 141.168 8.97362C140.322 9.34981 139.592 9.94556 139.054 10.6991C138.691 11.2038 138.435 11.7767 138.3 12.3833C138.212 12.8132 138.206 13.0605 138.182 13.0605C138.159 13.0605 138.182 13.0016 138.182 12.8838C138.177 12.7106 138.187 12.5372 138.212 12.3656C138.309 11.7323 138.546 11.1287 138.907 10.5989C139.446 9.79418 140.195 9.15261 141.074 8.74396C142.161 8.24876 143.349 8.01482 144.542 8.06084L144.383 8.19629C144.412 7.96229 144.464 7.73159 144.536 7.50729C144.964 6.29193 145.852 5.29352 147.01 4.72774C147.95 4.28202 148.979 4.05645 150.019 4.06818C150.709 4.07026 151.398 4.14128 152.074 4.28018C152.324 4.30692 152.569 4.36428 152.804 4.45096Z" fill="#455A64"/>
<path d="M128.472 135.143L172.285 133.641L176.348 193.472L138.012 194.008L128.472 135.143Z" fill="#E0E0E0"/>
<path d="M162.568 90.7051C163.157 89.9573 195.834 112.123 197.313 114.773C198.791 117.423 206.664 194.014 206.664 194.014H163.976C163.976 194.014 160.054 130.932 160.26 125.114C160.466 119.296 162.568 90.7051 162.568 90.7051Z" fill="#4A788D"/>
<path d="M64.0357 194.349C64.0357 194.349 59.2186 184.438 59.7545 179.627C60.2904 174.816 64.0357 165.164 64.0357 165.164L73.6758 148.027C73.6758 148.027 75.6073 133.747 76.6732 131.067C77.7391 128.388 83.3866 110.274 90.0645 106.016C96.7425 101.758 117.047 98.8374 117.047 98.8374L126.04 92.1594C126.04 92.1594 134.985 118.571 136.322 125.803C137.658 133.034 145.155 194.349 145.155 194.349H64.0357Z" fill="#4A788D"/>
<path d="M139.207 148.28C139.168 148.242 139.134 148.199 139.107 148.151L138.83 147.768L137.806 146.261L134.084 140.701C132.517 138.346 130.662 135.537 128.595 132.457L125.368 127.569C124.261 125.879 123.06 124.036 122.653 121.869C122.438 120.567 122.513 119.234 122.871 117.965C123.201 116.76 123.615 115.579 124.108 114.431L124.291 114.626L118.402 116.675L118.237 116.728V116.551C117.842 111.422 117.512 107.1 117.277 104.031C117.171 102.524 117.088 101.328 117.03 100.498C117.03 100.104 116.988 99.7974 116.977 99.5618C116.967 99.454 116.967 99.3457 116.977 99.2379C117.001 99.3424 117.017 99.4488 117.024 99.5559C117.024 99.7915 117.083 100.098 117.124 100.492C117.2 101.334 117.306 102.53 117.448 104.026C117.707 107.088 118.078 111.41 118.514 116.539L118.331 116.422L124.22 114.349L124.526 114.243L124.408 114.549C123.921 115.683 123.514 116.85 123.189 118.041C122.842 119.268 122.77 120.557 122.977 121.816C123.366 123.912 124.544 125.714 125.639 127.404C126.734 129.095 127.83 130.738 128.854 132.304L134.29 140.607L137.929 146.225L138.907 147.762L139.154 148.163C139.183 148.227 139.213 148.275 139.207 148.28Z" fill="#263238"/>
<path d="M108.409 193.06C108.379 193.002 108.359 192.941 108.35 192.877L108.208 192.335C108.091 191.835 107.926 191.157 107.708 190.239C107.29 188.401 106.689 185.769 105.941 182.524C104.504 175.982 102.526 166.978 100.335 157.031L94.7758 131.521C94.0573 128.27 93.4802 125.632 93.0739 123.795C92.8815 122.896 92.7284 122.195 92.6146 121.692C92.5675 121.463 92.5321 121.28 92.5027 121.145C92.4932 121.08 92.4932 121.015 92.5027 120.95C92.5027 120.95 92.5027 121.015 92.5557 121.133C92.6087 121.251 92.644 121.451 92.697 121.675C92.8207 122.175 92.9973 122.852 93.2152 123.765C93.651 125.585 94.2693 128.217 94.9819 131.474C96.4659 137.987 98.4563 147.003 100.623 156.967C102.791 166.931 104.746 175.935 106.141 182.477C106.836 185.734 107.407 188.366 107.802 190.215C107.99 191.116 108.144 191.817 108.25 192.318C108.291 192.547 108.326 192.73 108.356 192.871C108.385 193.012 108.409 193.06 108.409 193.06Z" fill="#263238"/>
<g opacity="0.3">
<path opacity="0.3" d="M104.533 193.472C108.864 190.904 113.729 189.373 118.749 188.996C122.606 188.713 126.587 189.108 130.268 187.913C134.39 186.576 137.635 183.419 140.715 180.357C141.622 179.586 142.334 178.611 142.793 177.513C143.164 176.388 142.852 174.945 141.798 174.403C140.985 173.985 140.002 174.203 139.119 174.451C126.127 178.043 114.083 184.446 103.838 193.207" fill="black"/>
</g>
<path d="M93.1208 171.383C93.1208 171.383 92.8852 171.053 92.4789 170.446C91.8996 169.6 91.2641 168.793 90.5768 168.032C88.3238 165.491 85.497 163.524 82.3311 162.295C79.1652 161.066 75.7517 160.61 72.3743 160.965C71.353 161.065 70.3398 161.234 69.3415 161.472C68.9773 161.577 68.6077 161.664 68.2344 161.731C68.3201 161.679 68.4135 161.641 68.5112 161.619C68.6937 161.554 68.9587 161.454 69.312 161.36C70.3067 161.079 71.3232 160.882 72.3507 160.771C75.7654 160.352 79.2305 160.783 82.4387 162.025C85.6469 163.267 88.4989 165.282 90.7416 167.891C91.4206 168.672 92.035 169.507 92.579 170.387C92.7792 170.7 92.9029 170.976 92.9971 171.118C93.0913 171.259 93.1325 171.383 93.1208 171.383Z" fill="#263238"/>
<path d="M97.8087 169.057C97.8087 169.057 97.7498 168.968 97.6674 168.786L97.3317 167.985C97.1904 167.637 97.0196 167.213 96.7781 166.736C96.5367 166.259 96.307 165.7 95.9655 165.117L95.459 164.192C95.2824 163.874 95.0704 163.556 94.8702 163.221C94.4697 162.538 93.9633 161.86 93.4568 161.136C91.1591 158.041 88.3273 155.38 85.0946 153.28C84.3408 152.809 83.6342 152.35 82.9334 151.997C82.586 151.808 82.2562 151.614 81.9264 151.455L80.9724 151.007C80.3835 150.707 79.7946 150.501 79.3059 150.301C78.8868 150.119 78.4583 149.959 78.0221 149.824L77.2035 149.535C77.1056 149.508 77.0123 149.466 76.9268 149.411C77.027 149.422 77.1258 149.444 77.2212 149.476L78.0574 149.706C78.5003 149.826 78.9367 149.97 79.3648 150.136C79.8653 150.33 80.4483 150.518 81.0607 150.813L82.0265 151.243C82.3622 151.396 82.6979 151.59 83.0512 151.767C83.7696 152.12 84.4822 152.58 85.2477 153.039C86.8772 154.096 88.4121 155.292 89.8352 156.613C91.2416 157.951 92.5283 159.409 93.6806 160.971C94.1929 161.707 94.6876 162.396 95.088 163.085C95.2883 163.427 95.5003 163.751 95.6769 164.075L96.1716 165.017C96.5014 165.606 96.7251 166.195 96.943 166.666C97.1371 167.082 97.3082 167.509 97.4554 167.944L97.738 168.762C97.7716 168.858 97.7952 168.956 97.8087 169.057Z" fill="#263238"/>
<path d="M186.848 140.643C186.856 140.686 186.856 140.729 186.848 140.772L186.766 141.167C186.683 141.532 186.571 142.027 186.424 142.657C186.124 143.946 185.682 145.819 185.182 148.139C183.824 154.17 183.049 160.316 182.867 166.495C182.778 169.893 183.021 173.291 183.592 176.641C184.049 179.38 184.781 182.065 185.776 184.656C186.449 186.401 187.254 188.092 188.185 189.715C188.509 190.304 188.803 190.722 188.974 191.022L189.18 191.364C189.204 191.403 189.224 191.444 189.239 191.487C189.239 191.487 189.204 191.458 189.151 191.381L188.921 191.057C188.733 190.763 188.421 190.351 188.085 189.774C187.108 188.167 186.269 186.481 185.576 184.733C184.539 182.136 183.775 179.438 183.297 176.683C182.7 173.319 182.44 169.904 182.52 166.489C182.699 160.291 183.506 154.127 184.928 148.092C185.453 145.772 185.93 143.911 186.265 142.627C186.436 142.003 186.571 141.514 186.666 141.149C186.713 140.996 186.748 140.872 186.778 140.766L186.848 140.643Z" fill="#263238"/>
<path d="M182.72 165.6C182.706 165.451 182.706 165.301 182.72 165.152C182.752 164.834 182.787 164.41 182.826 163.88C182.885 163.333 182.932 162.655 182.991 161.872C183.05 161.089 183.115 160.194 183.174 159.204C183.421 155.253 183.592 149.782 183.55 143.74C183.509 137.698 183.268 132.228 183.015 128.276C182.897 126.297 182.773 124.702 182.685 123.594C182.649 123.064 182.62 122.646 182.596 122.322C182.579 122.174 182.579 122.024 182.596 121.875C182.631 122.02 182.654 122.168 182.667 122.317C182.702 122.635 182.755 123.059 182.82 123.583C182.938 124.684 183.097 126.286 183.244 128.258C183.55 132.21 183.833 137.681 183.868 143.74C183.904 149.8 183.704 155.265 183.397 159.216C183.333 160.206 183.256 161.101 183.174 161.884C183.091 162.667 183.032 163.344 182.962 163.892C182.891 164.44 182.838 164.84 182.797 165.158C182.781 165.307 182.755 165.454 182.72 165.6Z" fill="#263238"/>
<path d="M170.489 110.303C170.472 110.473 170.43 110.64 170.365 110.798C170.181 111.253 169.89 111.657 169.517 111.976C168.928 112.489 168.212 112.835 167.444 112.977C166.435 113.151 165.408 113.196 164.388 113.112L164.417 112.9L168.369 113.878H168.481V113.984C168.098 117.859 167.533 122.499 166.714 127.452C165.613 134.253 164.252 140.348 163.181 144.73C162.627 146.914 162.15 148.681 161.803 149.894C161.632 150.483 161.496 150.942 161.39 151.284C161.347 151.448 161.294 151.609 161.231 151.767C161.249 151.599 161.283 151.434 161.332 151.272C161.42 150.919 161.538 150.454 161.691 149.859C161.997 148.64 162.445 146.867 162.975 144.677C164.011 140.289 165.33 134.195 166.437 127.405C167.209 122.505 167.798 117.853 168.21 113.99L168.31 114.125L164.364 113.106L164.4 112.894C165.402 112.989 166.413 112.961 167.409 112.812C168.155 112.686 168.855 112.367 169.441 111.887C169.811 111.588 170.108 111.207 170.306 110.774C170.442 110.474 170.471 110.303 170.489 110.303Z" fill="#263238"/>
<g opacity="0.3">
<path opacity="0.3" d="M94.0807 128.288C93.4844 127.431 92.7478 126.68 91.9018 126.068C91.6125 125.816 91.2488 125.664 90.8658 125.637C90.4828 125.61 90.1014 125.708 89.7793 125.917C89.4572 126.126 89.2119 126.435 89.0806 126.795C88.9493 127.156 88.9392 127.55 89.0516 127.917C89.2042 128.572 89.4649 129.197 89.8231 129.766C93.5871 136.689 96.0802 144.23 97.1842 152.032C97.6553 155.365 97.8673 158.745 98.5857 162.043C99.3042 165.341 100.046 167.832 102.337 170.287L103.279 169.887C103.173 169.002 103.02 168.123 102.82 167.255C99.7517 154.458 97.0664 141.691 94.0807 128.288Z" fill="black"/>
</g>
<g opacity="0.3">
<path opacity="0.3" d="M93.5156 171.512C93.1092 168.45 91.16 165.747 88.6926 163.857C86.2251 161.966 83.2807 160.912 80.3245 159.994C78.7459 159.444 77.0847 159.169 75.4132 159.181C73.7466 159.275 70.6255 159.988 69.6479 161.342C80.6778 158.739 88.6926 163.857 93.0974 171.742" fill="black"/>
</g>
<g opacity="0.3">
<path opacity="0.3" d="M183.109 131.963C182.273 141.031 179.835 149.882 178.751 158.922C177.667 167.961 178.086 177.578 182.52 185.516C184.016 188.184 186.13 190.739 189.062 191.629C185.57 187.436 183.851 182.006 183.221 176.583C182.591 171.159 182.956 165.688 183.221 160.235C183.633 150.813 183.649 141.391 183.268 131.968" fill="black"/>
</g>
<path d="M95.4471 134.636C95.2158 134.762 94.9733 134.867 94.7228 134.948C94.0498 135.201 93.3637 135.417 92.6676 135.596C91.6362 135.856 90.59 136.052 89.5347 136.185C88.2381 136.35 86.9315 136.425 85.6245 136.409C84.3181 136.373 83.0156 136.249 81.7261 136.038C80.6745 135.861 79.6358 135.615 78.6167 135.301C77.9284 135.098 77.2521 134.856 76.591 134.577C76.3441 134.486 76.1056 134.374 75.8784 134.241C76.1377 134.286 76.3907 134.361 76.6322 134.465C77.1092 134.636 77.81 134.86 78.6756 135.095C79.6958 135.371 80.7297 135.593 81.7732 135.761C84.3301 136.159 86.9292 136.209 89.4994 135.908C90.5471 135.783 91.5872 135.601 92.6146 135.36C93.492 135.154 94.1987 134.96 94.6816 134.807C94.929 134.719 95.186 134.662 95.4471 134.636Z" fill="white"/>
<path d="M125.498 128.305C124.772 128.917 123.982 129.448 123.142 129.89C119.24 132.005 114.695 132.609 110.375 131.586C108.368 131.094 106.465 130.247 104.757 129.083C102.865 127.8 101.226 126.179 99.9226 124.301C99.2402 123.305 98.6583 122.244 98.1854 121.133C97.6798 119.993 97.3369 118.788 97.1666 117.552C96.9789 116.305 97.0816 115.031 97.4669 113.831C97.6569 113.24 97.9632 112.693 98.3677 112.223C98.7723 111.753 99.2669 111.368 99.8225 111.092C100.92 110.603 102.157 110.524 103.309 110.868C104.415 111.173 105.394 111.825 106.1 112.729C106.739 113.594 107.144 114.608 107.278 115.674C107.409 116.681 107.334 117.705 107.06 118.683C106.523 120.421 105.48 121.959 104.062 123.1C102.914 124.042 101.619 124.79 100.229 125.314C99.1853 125.705 98.1146 126.02 97.0253 126.256C96.1302 126.45 95.4235 126.568 94.9524 126.639L94.4047 126.721C94.344 126.728 94.2828 126.728 94.2222 126.721L94.4047 126.674L94.9406 126.568C95.4117 126.474 96.1184 126.339 96.9958 126.127C98.0743 125.873 99.1331 125.543 100.164 125.137C101.529 124.61 102.799 123.862 103.921 122.923C105.293 121.801 106.299 120.296 106.813 118.601C107.073 117.658 107.139 116.672 107.007 115.703C106.879 114.677 106.483 113.702 105.859 112.877C105.191 112.016 104.26 111.395 103.209 111.11C102.127 110.786 100.965 110.861 99.9344 111.322C99.4154 111.582 98.9536 111.942 98.5764 112.383C98.1991 112.824 97.914 113.337 97.7378 113.889C97.367 115.045 97.2683 116.27 97.4493 117.47C97.6161 118.689 97.9531 119.878 98.4504 121.003C99.8041 124.187 102.055 126.908 104.928 128.835C106.606 129.988 108.477 130.832 110.452 131.326C112.175 131.746 113.952 131.907 115.722 131.803C118.298 131.654 120.812 130.962 123.101 129.772C123.463 129.595 123.815 129.399 124.155 129.183C124.456 129.006 124.709 128.847 124.903 128.706L125.357 128.4L125.498 128.305Z" fill="white"/>
<path d="M129.861 105.044C129.861 105.097 129.114 105.156 127.918 105.38C126.364 105.67 124.848 106.139 123.401 106.776C121.956 107.417 120.587 108.219 119.32 109.167C118.349 109.897 117.801 110.415 117.76 110.344C117.86 110.197 117.979 110.062 118.113 109.944C118.451 109.595 118.811 109.268 119.191 108.966C120.434 107.952 121.809 107.111 123.278 106.464C124.747 105.819 126.296 105.372 127.883 105.133C128.363 105.061 128.846 105.016 129.331 104.997C129.509 104.986 129.688 105.002 129.861 105.044Z" fill="white"/>
<path d="M139.531 150.925L139.325 150.842L138.736 150.583C137.972 150.265 137.185 150.007 136.381 149.812C133.439 149.117 130.365 149.229 127.482 150.136C125.494 150.74 123.632 151.702 121.988 152.974C120.097 154.427 118.471 156.197 117.183 158.204C115.75 160.414 114.703 162.851 114.085 165.412C113.728 166.744 113.742 168.15 114.127 169.475C114.37 170.131 114.77 170.717 115.291 171.184C115.812 171.651 116.439 171.984 117.118 172.154C118.487 172.533 119.937 172.5 121.287 172.06C122.603 171.639 123.793 170.896 124.75 169.899C125.678 168.946 126.273 167.719 126.446 166.401C126.515 165.766 126.472 165.124 126.316 164.505C126.15 163.901 125.899 163.324 125.569 162.791C124.9 161.776 124.032 160.906 123.019 160.235C122.062 159.593 121.019 159.089 119.921 158.739C118.895 158.409 117.84 158.174 116.771 158.039C115.782 157.926 114.785 157.895 113.791 157.944C110.774 158.087 107.843 158.991 105.27 160.571C104.57 161.001 103.903 161.481 103.273 162.008L102.785 162.42L102.614 162.55C102.659 162.495 102.709 162.444 102.761 162.396L103.232 161.961C103.848 161.411 104.508 160.913 105.205 160.471C107.782 158.836 110.737 157.891 113.785 157.727C114.79 157.668 115.799 157.693 116.8 157.803C117.886 157.933 118.956 158.166 119.998 158.498C121.121 158.848 122.188 159.358 123.166 160.011C124.217 160.697 125.117 161.591 125.81 162.638C126.158 163.195 126.422 163.8 126.593 164.434C126.76 165.087 126.81 165.765 126.74 166.436C126.561 167.817 125.942 169.104 124.974 170.105C123.984 171.141 122.751 171.914 121.388 172.355C119.978 172.813 118.464 172.846 117.036 172.449C116.311 172.263 115.643 171.904 115.087 171.404C114.531 170.903 114.105 170.276 113.844 169.575C113.44 168.197 113.424 166.734 113.797 165.347C114.426 162.753 115.493 160.285 116.953 158.05C118.263 156.014 119.917 154.22 121.841 152.75C123.511 151.467 125.404 150.503 127.424 149.906C130.343 149.003 133.454 148.924 136.416 149.676C137.225 149.881 138.013 150.159 138.771 150.507L139.36 150.795L139.531 150.925Z" fill="white"/>
<path d="M85.8128 153.251C85.8128 153.31 85.1474 153.392 84.1345 153.745C83.5436 153.954 82.9722 154.214 82.4267 154.523C81.0872 155.277 79.9246 156.309 79.0171 157.55C78.6514 158.058 78.3284 158.596 78.0513 159.157C77.5802 160.123 77.4212 160.777 77.3623 160.759C77.3621 160.599 77.388 160.44 77.4389 160.288C77.5386 159.868 77.6766 159.458 77.8511 159.063C78.1082 158.475 78.4217 157.913 78.7874 157.385C79.2466 156.741 79.7737 156.149 80.3597 155.618C80.954 155.112 81.6017 154.671 82.2913 154.305C82.8524 153.997 83.4446 153.751 84.058 153.569C84.4704 153.44 84.8944 153.351 85.3241 153.304C85.4831 153.26 85.6481 153.242 85.8128 153.251Z" fill="white"/>
<path d="M105.664 183.443C105.664 183.443 105.611 183.402 105.517 183.308C105.423 183.213 105.281 183.054 105.111 182.878C104.757 182.501 104.233 181.941 103.538 181.252C101.611 179.26 99.4337 177.526 97.0605 176.094C95.4208 175.12 93.6442 174.397 91.79 173.95C89.6643 173.453 87.4583 173.402 85.3122 173.803C82.9322 174.242 80.7584 175.44 79.1171 177.219C78.2677 178.154 77.7198 179.324 77.5448 180.575C77.4542 181.211 77.4986 181.86 77.6751 182.478C77.8517 183.095 78.1564 183.669 78.5695 184.162C78.996 184.636 79.5404 184.989 80.1474 185.186C80.7544 185.382 81.4026 185.415 82.0262 185.28C82.6283 185.131 83.1655 184.79 83.5574 184.309C83.9449 183.829 84.2115 183.264 84.3347 182.66C84.5718 181.465 84.3622 180.224 83.7458 179.174C83.1638 178.157 82.3381 177.301 81.3431 176.683C79.4563 175.571 77.259 175.104 75.0833 175.352C73.1827 175.529 71.3104 175.935 69.5065 176.559C66.875 177.431 64.3762 178.662 62.0806 180.216C61.268 180.77 60.6673 181.235 60.2551 181.553L59.7957 181.918C59.6897 182 59.6367 182.042 59.6309 182.036C60.3653 181.338 61.1528 180.698 61.9864 180.122C64.2817 178.514 66.7965 177.244 69.4535 176.353C71.2709 175.71 73.1592 175.289 75.0774 175.099C77.3098 174.836 79.5671 175.307 81.508 176.441C82.5448 177.083 83.4067 177.971 84.0167 179.026C84.6727 180.14 84.895 181.457 84.6409 182.725C84.5125 183.372 84.2274 183.979 83.8106 184.491C83.3757 185.022 82.7808 185.398 82.1146 185.563C81.4375 185.712 80.7329 185.679 80.0728 185.467C79.4127 185.255 78.8208 184.872 78.3575 184.356C77.9172 183.83 77.5922 183.218 77.4035 182.558C77.2148 181.899 77.1666 181.207 77.2621 180.528C77.442 179.211 78.0169 177.979 78.911 176.995C80.5944 175.17 82.8274 173.943 85.271 173.503C87.4617 173.101 89.7123 173.161 91.8783 173.679C93.7451 174.145 95.5316 174.887 97.1783 175.882C99.5617 177.339 101.74 179.107 103.656 181.141C104.339 181.853 104.834 182.424 105.187 182.813L105.57 183.261L105.664 183.443Z" fill="white"/>
<path d="M182.861 166.813C182.742 166.917 182.611 167.008 182.472 167.084C182.343 167.166 182.184 167.272 181.989 167.384L181.295 167.731C181.03 167.861 180.706 167.967 180.388 168.102C180.07 168.238 179.675 168.32 179.275 168.432C178.351 168.643 177.407 168.753 176.46 168.762C173.97 168.766 171.54 168.003 169.499 166.577C168.256 165.77 167.277 164.615 166.684 163.256C166.412 162.494 166.412 161.662 166.684 160.9C166.832 160.512 167.068 160.163 167.375 159.883C167.682 159.603 168.051 159.398 168.451 159.287C169.233 159.106 170.047 159.113 170.826 159.307C171.605 159.502 172.327 159.878 172.932 160.406C173.523 160.881 173.996 161.485 174.316 162.172C174.621 162.847 174.715 163.598 174.587 164.328C174.452 165.011 174.158 165.653 173.727 166.2C173.329 166.71 172.865 167.165 172.349 167.555C171.434 168.238 170.447 168.818 169.405 169.286C167.895 169.97 166.295 170.432 164.653 170.658C164.064 170.735 163.616 170.77 163.31 170.782C163.153 170.798 162.996 170.798 162.839 170.782C162.992 170.749 163.148 170.729 163.304 170.723C163.61 170.688 164.058 170.635 164.629 170.54C166.258 170.274 167.843 169.786 169.34 169.092C170.366 168.62 171.338 168.037 172.238 167.355C173.294 166.621 174.047 165.528 174.358 164.281C174.445 163.586 174.347 162.88 174.071 162.237C173.796 161.593 173.354 161.034 172.791 160.618C172.223 160.124 171.545 159.771 170.815 159.588C170.084 159.404 169.321 159.396 168.586 159.564C168.228 159.661 167.898 159.841 167.623 160.089C167.348 160.338 167.135 160.648 167.002 160.995C166.752 161.685 166.752 162.442 167.002 163.132C167.491 164.516 168.628 165.517 169.699 166.324C171.687 167.729 174.055 168.495 176.489 168.521C177.421 168.525 178.35 168.432 179.263 168.244C179.663 168.138 180.034 168.049 180.37 167.938C180.706 167.826 181.012 167.72 181.277 167.602L181.978 167.278C182.178 167.178 182.337 167.078 182.472 167.007C182.598 166.935 182.728 166.87 182.861 166.813Z" fill="white"/>
<path d="M165.86 126.28C164.823 126.556 163.806 126.902 162.816 127.316C161.871 127.817 160.961 128.384 160.095 129.012C160.775 128.143 161.667 127.463 162.686 127.039C163.664 126.523 164.755 126.262 165.86 126.28Z" fill="white"/>
<path d="M136.228 126.416C136.147 126.891 135.99 127.35 135.763 127.776C135.266 128.83 134.6 129.795 133.79 130.632C132.98 131.469 132.039 132.17 131.004 132.705C130.584 132.944 130.129 133.115 129.656 133.211C131.093 132.481 132.413 131.54 133.572 130.42C134.654 129.226 135.549 127.876 136.228 126.416Z" fill="white"/>
<path d="M174.658 98.6314C174.658 98.6314 174.24 98.7079 173.48 98.8964C172.43 99.1648 171.41 99.5397 170.436 100.015C169.762 100.335 169.113 100.703 168.492 101.116C167.782 101.579 167.161 102.168 166.661 102.854C166.123 103.61 165.849 104.523 165.884 105.451C165.91 105.932 166.049 106.4 166.29 106.817C166.554 107.233 166.932 107.564 167.38 107.771C167.821 107.987 168.318 108.063 168.805 107.989C169.276 107.916 169.7 107.66 169.982 107.276C170.227 106.896 170.364 106.456 170.379 106.005C170.395 105.553 170.288 105.105 170.071 104.709C169.864 104.351 169.584 104.041 169.249 103.798C168.914 103.556 168.532 103.386 168.127 103.301C167.412 103.133 166.665 103.143 165.954 103.331C164.921 103.643 163.958 104.155 163.122 104.838C162.533 105.303 162.191 105.586 162.174 105.568C162.156 105.551 162.239 105.48 162.386 105.339C162.533 105.197 162.751 104.991 163.045 104.75C163.87 104.014 164.841 103.462 165.896 103.13C166.641 102.916 167.429 102.892 168.186 103.06C168.631 103.148 169.051 103.329 169.42 103.592C169.788 103.855 170.096 104.193 170.324 104.585C170.568 105.028 170.688 105.53 170.67 106.036C170.653 106.542 170.498 107.033 170.224 107.459C169.903 107.905 169.418 108.206 168.875 108.295C168.327 108.381 167.766 108.296 167.268 108.054C166.765 107.823 166.342 107.45 166.049 106.982C165.782 106.522 165.628 106.005 165.601 105.474C165.568 104.479 165.866 103.501 166.449 102.695C166.974 101.992 167.625 101.393 168.369 100.928C169.007 100.516 169.674 100.152 170.365 99.8386C171.359 99.3762 172.402 99.0285 173.474 98.8021C173.851 98.7256 174.152 98.6902 174.352 98.6667C174.452 98.6411 174.555 98.6292 174.658 98.6314Z" fill="white"/>
<path d="M182.343 134.73C182.249 134.869 182.147 135.003 182.037 135.131C181.931 135.254 181.778 135.384 181.607 135.555C181.391 135.727 181.163 135.882 180.924 136.02C180.145 136.444 179.286 136.699 178.402 136.768C177.518 136.837 176.63 136.718 175.795 136.42C174.629 136.023 173.593 135.317 172.797 134.377C171.89 133.304 171.227 132.046 170.854 130.69C170.428 129.201 170.271 127.648 170.389 126.103C170.463 124.423 171.048 122.806 172.067 121.468C172.604 120.81 173.295 120.294 174.078 119.966C174.862 119.639 175.715 119.509 176.56 119.59C177.374 119.686 178.131 120.053 178.71 120.632C179.276 121.187 179.604 121.942 179.623 122.734C179.604 123.489 179.296 124.208 178.763 124.743C178.281 125.242 177.691 125.623 177.037 125.856C175.873 126.259 174.622 126.341 173.416 126.091C172.43 125.894 171.479 125.551 170.595 125.072C169.931 124.721 169.289 124.328 168.675 123.895C168.169 123.535 167.786 123.247 167.533 123.047C167.397 122.951 167.269 122.845 167.15 122.729C167.298 122.805 167.438 122.896 167.568 122.999L168.746 123.794C169.367 124.208 170.012 124.586 170.677 124.925C171.552 125.379 172.489 125.702 173.457 125.885C174.625 126.112 175.833 126.023 176.955 125.626C177.568 125.403 178.12 125.04 178.568 124.566C179.051 124.079 179.329 123.426 179.346 122.74C179.323 122.022 179.023 121.341 178.51 120.838C177.972 120.31 177.274 119.977 176.525 119.89C175.732 119.82 174.935 119.944 174.201 120.252C173.467 120.559 172.819 121.042 172.314 121.657C171.333 122.945 170.767 124.502 170.695 126.121C170.574 127.63 170.721 129.15 171.131 130.608C171.491 131.926 172.127 133.152 172.998 134.206C173.756 135.122 174.749 135.814 175.871 136.208C176.68 136.506 177.542 136.633 178.402 136.583C179.262 136.532 180.103 136.304 180.871 135.914C181.424 135.603 181.921 135.203 182.343 134.73Z" fill="white"/>
<path d="M198.873 130.49C198.873 130.555 197.866 130.196 196.2 130.072C194.024 129.906 191.842 130.318 189.877 131.268C187.912 132.217 186.233 133.67 185.011 135.478C184.522 136.237 184.077 137.023 183.68 137.834C183.721 137.591 183.796 137.355 183.904 137.133C184.156 136.516 184.466 135.925 184.829 135.366C186.026 133.482 187.725 131.969 189.734 130.996C191.744 130.023 193.985 129.63 196.206 129.86C196.872 129.924 197.531 130.052 198.173 130.243C198.415 130.298 198.65 130.381 198.873 130.49Z" fill="white"/>
<g opacity="0.3">
<path opacity="0.3" d="M162.015 97.236C168.658 100.475 176.737 100.663 182.656 105.056C186.097 107.611 188.469 111.35 189.315 115.552C190.16 119.753 189.417 124.119 187.231 127.805C186.801 124.06 186.054 119.808 182.885 117.794C181.496 116.917 179.835 116.616 178.292 116.027C176.555 115.391 174.953 114.414 173.192 113.854C170.837 113.101 168.234 113.13 165.867 112.347C163.499 111.564 161.197 109.544 161.373 107.047L162.015 97.236Z" fill="black"/>
</g>
<path d="M187.16 126.78L186.218 114.938C186.218 114.938 179.793 113.695 177.514 112.247C175.235 110.798 171.066 107.783 171.066 107.783C171.066 107.783 170.059 111.399 167.986 111.605L166.119 111.817L166.031 104.526C166.031 104.526 165.678 107.801 162.987 108.307C162.398 108.425 162.368 108.307 162.368 108.307L160.549 98.7611C160.549 98.7611 158.393 101.552 154.454 99.6916C154.454 99.6916 160.837 88.5616 162.08 88.1494C163.322 87.7372 170.036 87.5605 170.036 87.5605C170.036 87.5605 179.358 86.9716 180.394 87.3721C181.431 87.7725 182.879 89.4214 182.879 89.4214C182.879 89.4214 193.862 99.9919 197.383 103.513C200.161 106.444 202.032 110.115 202.772 114.084C202.984 115.945 204.538 123.712 204.538 123.712" fill="#FFBE9D"/>
<path d="M204.573 123.742L204.52 123.547L204.397 122.958C204.291 122.44 204.132 121.692 203.932 120.715C203.731 119.737 203.502 118.524 203.225 117.105C203.095 116.398 202.954 115.633 202.819 114.814C202.748 114.408 202.713 113.978 202.63 113.554C202.548 113.13 202.43 112.694 202.3 112.252C201.712 110.305 200.867 108.446 199.786 106.723C199.176 105.75 198.476 104.837 197.695 103.996C196.877 103.136 195.958 102.294 195.051 101.399L182.808 89.5272C182.44 89.1113 182.046 88.718 181.63 88.3494C181.237 87.9683 180.768 87.6752 180.252 87.4896C179.693 87.4109 179.127 87.3774 178.562 87.3895C177.973 87.3895 177.385 87.3895 176.796 87.3895C174.44 87.4425 172.043 87.5897 169.576 87.7075C168.345 87.7428 167.103 87.79 165.854 87.8606C165.23 87.896 164.6 87.9372 163.97 87.9902C163.35 88.0265 162.735 88.1191 162.132 88.2669C161.89 88.428 161.676 88.6268 161.496 88.8558C161.296 89.1032 161.096 89.3505 160.907 89.6096C160.531 90.1278 160.165 90.6578 159.806 91.1996C159.094 92.2714 158.399 93.3785 157.71 94.4974C156.644 96.264 155.607 97.9836 154.612 99.709L154.542 99.497C155.521 99.9896 156.619 100.194 157.71 100.086C158.77 99.9431 159.744 99.425 160.454 98.6255L160.666 98.384L160.719 98.6903C161.343 101.959 161.95 105.168 162.533 108.236C162.533 108.148 162.503 108.171 162.492 108.154H162.562C162.619 108.159 162.676 108.159 162.733 108.154C162.85 108.141 162.966 108.119 163.08 108.089L163.422 107.995L163.746 107.859C164.169 107.657 164.542 107.366 164.841 107.005C165.422 106.268 165.793 105.387 165.913 104.455H166.196C166.196 106.976 166.215 109.41 166.255 111.758L166.107 111.628L167.921 111.428C168.483 111.355 168.998 111.078 169.37 110.651C170.104 109.796 170.642 108.791 170.948 107.706L170.995 107.547L171.136 107.641L175.106 110.386L176.972 111.681C177.551 112.11 178.182 112.462 178.851 112.729C180.105 113.226 181.389 113.641 182.696 113.972C183.939 114.296 185.123 114.561 186.23 114.796H186.294V114.861C186.571 118.606 186.795 121.569 186.948 123.6C187.019 124.607 187.072 125.367 187.113 125.915C187.113 126.168 187.113 126.368 187.148 126.503C187.152 126.57 187.152 126.637 187.148 126.704C187.148 126.704 187.148 126.639 187.148 126.503C187.148 126.368 187.113 126.168 187.089 125.915C187.042 125.379 186.972 124.607 186.883 123.6C186.713 121.569 186.465 118.612 186.147 114.873L186.218 114.944C185.093 114.726 183.909 114.461 182.685 114.137C181.366 113.811 180.069 113.4 178.804 112.906C178.122 112.638 177.479 112.281 176.89 111.846L175.011 110.556C173.733 109.679 172.403 108.79 171.03 107.824L171.219 107.759C170.906 108.886 170.352 109.931 169.594 110.821C169.18 111.297 168.605 111.603 167.98 111.681L166.172 111.887H166.025V111.74C166.001 109.384 165.976 106.948 165.948 104.432H166.231C166.104 105.418 165.713 106.352 165.1 107.135C164.779 107.527 164.377 107.846 163.923 108.071L163.569 108.218L163.198 108.319C163.073 108.351 162.945 108.375 162.815 108.389H162.609H162.492H162.421C162.401 108.384 162.383 108.374 162.368 108.36C162.368 108.36 162.327 108.36 162.297 108.242L160.478 98.6962L160.748 98.7609C159.99 99.626 158.944 100.187 157.804 100.339C156.66 100.464 155.503 100.259 154.471 99.7502L154.324 99.6796L154.406 99.5383C155.407 97.803 156.442 96.0619 157.51 94.3148C158.199 93.1959 158.894 92.0888 159.612 91.0053C159.971 90.4635 160.336 89.9276 160.725 89.4035C160.913 89.1444 161.114 88.8912 161.314 88.6379C161.521 88.3602 161.778 88.1244 162.073 87.9431C162.705 87.7859 163.35 87.6893 163.999 87.6545C164.629 87.5956 165.265 87.5603 165.889 87.5191C167.144 87.4543 168.392 87.4072 169.623 87.3718C172.073 87.26 174.487 87.1127 176.843 87.0656C177.432 87.0656 178.021 87.0656 178.609 87.0656C179.2 87.0562 179.791 87.0936 180.376 87.1775C180.934 87.3736 181.443 87.6891 181.866 88.1021C182.294 88.4679 182.697 88.8614 183.073 89.2798L195.281 101.175C196.194 102.076 197.101 102.942 197.925 103.784C198.711 104.641 199.415 105.57 200.027 106.558C201.111 108.299 201.955 110.179 202.536 112.146C202.66 112.594 202.777 113.03 202.854 113.465C202.93 113.901 202.972 114.325 203.042 114.732C203.166 115.55 203.296 116.31 203.425 117.022C203.684 118.442 203.908 119.655 204.091 120.644C204.273 121.633 204.414 122.369 204.515 122.894C204.556 123.141 204.591 123.329 204.615 123.482C204.638 123.636 204.573 123.742 204.573 123.742Z" fill="#89544C"/>
<path d="M171.637 88.149C171.637 88.202 170.66 88.3787 169.141 88.9028C167.171 89.6109 165.262 90.4795 163.434 91.4998C162.912 91.7636 162.436 92.1118 162.027 92.5303C161.66 92.9292 161.367 93.3897 161.161 93.8906C160.782 94.7402 160.597 95.6636 160.619 96.5936C160.619 97.3945 160.678 98.0482 160.684 98.4957C160.706 98.7316 160.696 98.9692 160.655 99.2024C160.6 98.9746 160.568 98.7417 160.56 98.5075C160.519 98.0541 160.431 97.4122 160.401 96.5995C160.347 95.6332 160.518 94.6674 160.902 93.7788C161.112 93.2422 161.42 92.749 161.809 92.3242C162.238 91.8803 162.737 91.5102 163.287 91.2289C165.128 90.1947 167.067 89.3465 169.076 88.6967C169.687 88.5071 170.308 88.3518 170.937 88.2314C171.166 88.1731 171.401 88.1454 171.637 88.149Z" fill="#89544C"/>
<path d="M178.633 90.2336C178.339 90.3497 178.036 90.4422 177.726 90.5104C177.138 90.6871 176.295 90.9226 175.283 91.3113C174.096 91.7676 172.953 92.3293 171.867 92.9896C171.243 93.3489 170.583 93.7316 169.882 94.0967C169.182 94.4619 168.422 94.7798 167.745 95.2097C167.409 95.4149 167.113 95.6804 166.873 95.993C166.656 96.3063 166.494 96.655 166.396 97.0235C166.212 97.7458 166.09 98.4827 166.031 99.2259C165.946 100.495 165.946 101.767 166.031 103.036C166.084 104.125 166.137 105.009 166.149 105.621C166.177 105.937 166.177 106.254 166.149 106.569C166.089 106.259 166.053 105.944 166.043 105.627C165.99 104.962 165.913 104.096 165.825 103.048C165.715 101.769 165.7 100.484 165.778 99.2024C165.833 98.4398 165.953 97.6832 166.137 96.9411C166.244 96.539 166.419 96.1584 166.655 95.8163C166.914 95.4702 167.235 95.1764 167.603 94.9506C168.334 94.4972 169.087 94.2027 169.776 93.8317C170.465 93.4607 171.125 93.0956 171.755 92.7423C172.863 92.091 174.028 91.543 175.235 91.1052C176.052 90.8233 176.884 90.5874 177.726 90.3985C178.023 90.315 178.326 90.2598 178.633 90.2336Z" fill="#89544C"/>
<path d="M182.049 93.3373C181.808 93.461 181.556 93.5596 181.295 93.6317C180.806 93.8084 180.117 94.0616 179.24 94.4208C176.989 95.3127 174.944 96.6531 173.227 98.3605C172.321 99.3176 171.626 100.455 171.19 101.699C170.836 102.72 170.655 103.793 170.654 104.874C170.681 105.867 170.819 106.855 171.066 107.818C171.066 107.818 171.025 107.759 170.972 107.63C170.895 107.437 170.83 107.241 170.778 107.041C170.565 106.327 170.451 105.588 170.436 104.844C170.37 102.35 171.295 99.9316 173.009 98.119C174.753 96.3954 176.851 95.0712 179.157 94.2383C180.035 93.9026 180.753 93.6494 181.26 93.5375C181.515 93.4434 181.78 93.3763 182.049 93.3373Z" fill="#89544C"/>
<path d="M185.6 100.716C185.6 100.716 185.564 100.769 185.458 100.834C185.304 100.925 185.134 100.987 184.958 101.016C184.305 101.09 183.644 100.989 183.044 100.722C182.642 100.561 182.226 100.439 181.801 100.357C181.32 100.288 180.829 100.345 180.376 100.522C179.334 101.002 178.346 101.595 177.432 102.288C176.484 102.916 175.661 103.715 175.006 104.644C174.584 105.5 174.064 106.304 173.457 107.041C173.198 107.311 172.9 107.541 172.573 107.724C172.319 107.86 172.032 107.925 171.743 107.912C171.565 107.906 171.388 107.874 171.219 107.818C171.107 107.777 171.048 107.753 171.054 107.741C171.06 107.73 171.301 107.8 171.743 107.794C172.007 107.782 172.264 107.706 172.491 107.571C172.793 107.385 173.067 107.157 173.304 106.893C173.871 106.143 174.362 105.338 174.77 104.491C175.425 103.507 176.27 102.664 177.255 102.012C177.762 101.646 178.262 101.317 178.751 100.999C179.224 100.677 179.734 100.414 180.27 100.215C180.768 100.03 181.306 99.9768 181.831 100.062C182.269 100.159 182.697 100.297 183.109 100.475C183.674 100.751 184.299 100.882 184.928 100.857C185.157 100.835 185.382 100.788 185.6 100.716Z" fill="#89544C"/>
<path d="M189.663 114.602C189.503 114.532 189.354 114.439 189.222 114.325C188.837 114.049 188.473 113.746 188.132 113.418C185.837 111.254 184.285 108.42 183.698 105.321C183.603 104.857 183.542 104.387 183.515 103.914C183.486 103.742 183.486 103.567 183.515 103.396C183.568 103.396 183.633 104.126 183.904 105.28C184.606 108.294 186.124 111.057 188.291 113.265C189.11 114.107 189.699 114.561 189.663 114.602Z" fill="#89544C"/>
<path d="M198.903 112.776C198.698 113.174 198.414 113.525 198.067 113.807C197.263 114.534 196.308 115.071 195.269 115.379C194.23 115.687 193.135 115.756 192.066 115.58C191.621 115.531 191.191 115.395 190.8 115.179C190.8 115.126 191.3 115.279 192.095 115.368C193.132 115.477 194.18 115.381 195.179 115.085C196.179 114.789 197.11 114.299 197.919 113.642C198.544 113.136 198.862 112.741 198.903 112.776Z" fill="#89544C"/>
<path d="M210.786 189.974C207.956 192.251 204.351 193.34 200.733 193.01C197.115 192.681 193.767 190.958 191.394 188.207C188.685 185.039 186.536 181.14 186.866 176.977C187.702 166.524 187.195 125.114 187.195 125.114L203.814 120.844C203.814 120.844 216.622 170.9 217.252 179.633C217.541 183.455 214.408 187.094 210.786 189.974Z" fill="#FFBE9D"/>
<path d="M76.9975 172.425H96.0657L106.619 168.715L109.687 160.541C109.687 160.541 115.882 155.83 122.318 161.778C128.755 167.726 132.724 179.627 132.724 179.627L115.646 185.575C115.646 185.575 104.993 193.537 103.751 193.56L69.66 194.02C69.66 194.02 69.3184 178.868 76.9975 172.425Z" fill="#FFBE9D"/>
<path d="M120.622 168.586L118.39 132.563C118.373 132.244 118.422 131.924 118.532 131.624C118.643 131.324 118.814 131.049 119.035 130.817C119.255 130.585 119.52 130.401 119.815 130.275C120.109 130.149 120.425 130.084 120.746 130.084H140.385C140.991 130.084 141.574 130.316 142.012 130.734C142.451 131.152 142.712 131.723 142.74 132.328L144.154 168.344C144.164 168.66 144.111 168.975 143.997 169.269C143.883 169.564 143.711 169.833 143.492 170.06C143.272 170.286 143.009 170.467 142.718 170.59C142.427 170.713 142.114 170.777 141.798 170.776H122.954C122.361 170.772 121.791 170.544 121.359 170.138C120.927 169.732 120.663 169.177 120.622 168.586Z" fill="#263238"/>
<path d="M141.886 152.379C141.864 152.235 141.852 152.089 141.851 151.943C141.851 151.625 141.816 151.207 141.792 150.689C141.757 149.564 141.71 147.998 141.651 146.078C141.592 144.158 141.545 141.809 141.48 139.241C141.449 137.949 141.419 136.603 141.392 135.201C141.421 134.506 141.342 133.811 141.156 133.14C141.045 132.818 140.84 132.537 140.567 132.333C140.282 132.139 139.952 132.019 139.607 131.986C138.884 131.945 138.158 131.945 137.434 131.986L135.297 132.033L131.257 132.11L124.42 132.227L121.794 132.263C121.139 132.227 120.483 132.269 119.839 132.386C119.641 132.43 119.456 132.517 119.297 132.641C119.139 132.766 119.009 132.924 118.92 133.105C118.873 133.239 118.849 133.381 118.849 133.523C118.8 133.382 118.8 133.228 118.849 133.087C118.926 132.884 119.049 132.702 119.208 132.555C119.368 132.407 119.559 132.299 119.768 132.239C120.421 132.095 121.09 132.034 121.758 132.057L124.385 131.974L131.222 131.792L135.261 131.697L137.399 131.644C138.139 131.603 138.88 131.603 139.619 131.644C140.014 131.688 140.392 131.827 140.72 132.051C141.036 132.291 141.273 132.622 141.398 132.999C141.594 133.702 141.677 134.431 141.645 135.16C141.669 136.562 141.692 137.908 141.716 139.2C141.757 141.767 141.792 144.082 141.822 146.037C141.851 147.992 141.857 149.529 141.869 150.648C141.869 151.172 141.869 151.59 141.869 151.902C141.891 152.06 141.897 152.22 141.886 152.379Z" fill="#455A64"/>
<path d="M130.904 138.405C130.795 138.16 130.61 137.957 130.377 137.826C130.144 137.694 129.874 137.641 129.609 137.675C129.455 137.635 129.294 137.629 129.137 137.656C128.981 137.684 128.832 137.744 128.701 137.834C128.57 137.924 128.46 138.041 128.377 138.177C128.295 138.313 128.243 138.465 128.225 138.623C128.213 138.946 128.311 139.264 128.504 139.524C128.696 139.784 128.972 139.971 129.285 140.054C129.519 140.118 129.766 140.123 130.002 140.067C130.239 140.012 130.458 139.898 130.639 139.736C130.815 139.568 130.935 139.351 130.983 139.112C131.03 138.874 131.003 138.627 130.904 138.405Z" fill="#E0E0E0"/>
<path d="M109.309 161.542V157.874C109.309 157.874 112.913 149.394 112.807 149.706C112.701 150.018 119.197 145.554 119.197 145.554C119.418 147.42 119.346 149.31 118.985 151.154C118.561 152.541 117.828 153.814 116.841 154.876L116.335 158.833L124.496 152.185L134.231 147.067C134.808 147.021 135.388 147.125 135.914 147.37C136.439 147.614 136.892 147.991 137.228 148.463C138.471 150.118 136.71 151.773 135.886 152.291C135.061 152.809 127.641 158.18 127.641 158.18L123.519 162.932L124.396 163.933L131.675 159.316C131.675 159.316 140.879 152.597 142.946 152.179H143.058C143.439 152.116 143.83 152.17 144.18 152.333C144.53 152.496 144.823 152.761 145.02 153.093C145.217 153.425 145.309 153.809 145.285 154.194C145.261 154.579 145.121 154.948 144.884 155.253C142.352 158.545 137.994 164.145 137.776 163.951C137.464 163.68 128.012 170.193 128.012 170.193C128.012 170.193 137.464 167.09 138.294 166.365C139.124 165.641 147.599 156.649 147.599 156.649C147.599 156.649 148.735 156.855 148.941 159.44L148.429 162.025C148.429 162.025 148.635 162.644 148.941 163.986C149.247 165.329 144.495 174.539 144.495 174.539C144.495 174.539 125.88 184.774 124.125 184.88C122.371 184.986 115.852 184.88 115.852 184.88L109.309 161.542Z" fill="#FFBE9D"/>
<path d="M148.229 161.689C148.147 161.965 148.028 162.229 147.876 162.473C147.49 163.158 147.06 163.817 146.586 164.445C145.997 165.252 145.267 166.171 144.525 167.249C143.705 168.422 142.772 169.513 141.74 170.505C139.805 172.241 137.646 173.709 135.321 174.869C134.443 175.328 133.725 175.681 133.218 175.923C132.967 176.061 132.703 176.174 132.429 176.259C132.66 176.088 132.906 175.94 133.165 175.817L135.221 174.68C137.492 173.473 139.61 171.996 141.528 170.281C142.548 169.304 143.475 168.234 144.295 167.084C145.049 166.012 145.809 165.099 146.409 164.316C147.01 163.533 147.475 162.879 147.77 162.414C147.908 162.163 148.061 161.921 148.229 161.689Z" fill="#89544C"/>
<path d="M80.8605 170.317C79.6405 170.892 78.4905 171.605 77.4332 172.443C74.9595 174.575 73.0909 177.321 72.0154 180.405C70.9699 183.498 70.3074 186.708 70.0426 189.962C69.9248 191.175 69.8306 192.17 69.76 192.907C69.7246 193.23 69.7011 193.496 69.6775 193.713C69.6755 193.808 69.6576 193.902 69.6245 193.99C69.6154 193.896 69.6154 193.802 69.6245 193.708C69.6245 193.49 69.6245 193.219 69.6539 192.901C69.6539 192.2 69.7364 191.181 69.8365 189.927C70.0327 186.644 70.6644 183.403 71.7151 180.287C72.8048 177.153 74.7313 174.377 77.2859 172.26C78.0649 171.637 78.9173 171.11 79.824 170.694C80.142 170.535 80.4129 170.458 80.5778 170.388C80.6698 170.356 80.7644 170.332 80.8605 170.317Z" fill="#263238"/>
<path d="M274.139 194.096C274.139 194.178 212.765 194.249 137.075 194.249C61.3856 194.249 0 194.178 0 194.096C0 194.013 61.3621 193.943 137.075 193.943C212.789 193.943 274.139 194.013 274.139 194.096Z" fill="#263238"/>
<path d="M208.106 195.038L128.194 195.58L179.439 206.628L198.095 201.975L208.106 195.038Z" fill="#E0E0E0"/>
<path d="M128.194 198.778L179.428 211.509L258.215 205.438L273.797 142.827C274.927 139.053 273.019 136.986 270.611 136.997L197.106 140.637C195.974 140.7 194.894 141.136 194.034 141.876C193.175 142.616 192.584 143.619 192.354 144.73L179.439 206.628L128.206 195.58L128.194 198.778Z" fill="#EBEBEB"/>
<path d="M128.195 198.778C128.195 198.778 128.195 198.524 128.195 197.994C128.195 197.464 128.195 196.658 128.195 195.58H128.23L179.493 206.545L179.363 206.628L185.494 177.183L188.95 160.6C189.543 157.738 190.148 154.835 190.764 151.89C191.07 150.418 191.379 148.934 191.689 147.438C191.848 146.691 192.001 145.943 192.16 145.189C192.277 144.408 192.551 143.658 192.967 142.986C193.396 142.306 193.975 141.733 194.66 141.312C195.345 140.89 196.117 140.631 196.918 140.554C198.49 140.454 200.063 140.39 201.629 140.307L211.257 139.83L231.162 138.835L251.826 137.81L262.426 137.286L267.773 137.021L270.458 136.886C271.404 136.825 272.338 137.128 273.067 137.734C273.678 138.271 274.092 138.996 274.245 139.795C274.38 140.576 274.36 141.377 274.186 142.15C273.817 143.642 273.448 145.128 273.079 146.608C272.345 149.557 271.614 152.501 270.888 155.441C269.432 161.279 267.999 167.035 266.589 172.708C263.763 184.05 261.03 195.026 258.415 205.544V205.644H258.309L179.516 211.674L141.863 202.252L131.669 199.649L129.066 198.99C128.478 198.842 128.195 198.76 128.195 198.76L129.09 198.972L131.716 199.614L141.839 202.099L179.463 211.427H179.434L258.215 205.32L258.086 205.426C260.7 194.909 263.433 183.926 266.248 172.584C267.661 166.915 269.092 161.158 270.541 155.312C271.271 152.395 272.003 149.451 272.737 146.479C273.102 145.006 273.467 143.534 273.838 142.044C274.002 141.313 274.022 140.557 273.897 139.818C273.762 139.09 273.392 138.426 272.843 137.928C271.489 136.709 269.504 137.31 267.755 137.292L262.408 137.557L251.808 138.081L231.144 139.1L211.24 140.083L201.611 140.56C200.027 140.643 198.443 140.702 196.9 140.802C196.144 140.876 195.414 141.121 194.766 141.519C194.118 141.917 193.569 142.457 193.161 143.098C192.767 143.745 192.505 144.464 192.389 145.212C192.236 145.96 192.077 146.714 191.924 147.456C191.606 148.952 191.3 150.436 190.988 151.908C190.375 154.856 189.769 157.76 189.168 160.618C187.99 166.33 186.834 171.858 185.7 177.201C183.462 187.866 181.395 197.735 179.528 206.645V206.745H179.422L128.189 195.627V195.598C128.189 196.669 128.189 197.47 128.189 198C128.189 198.53 128.195 198.778 128.195 198.778Z" fill="#263238"/>
<path d="M229.436 168.438C228.666 168.556 227.94 168.875 227.332 169.362C226.723 169.848 226.253 170.486 225.968 171.212C225.711 171.948 225.718 172.751 225.988 173.482C226.257 174.214 226.773 174.829 227.446 175.222C229.083 176.052 231.203 175.081 232.157 173.508C232.449 173.004 232.633 172.445 232.698 171.867C232.762 171.288 232.707 170.702 232.534 170.146C232.192 168.968 230.178 168.197 229.436 168.438Z" fill="white"/>
<path d="M229.436 168.438C229.714 168.327 230.022 168.314 230.308 168.403C230.645 168.474 230.972 168.589 231.279 168.744C231.702 168.937 232.074 169.228 232.363 169.592C232.533 169.812 232.649 170.068 232.705 170.34C232.778 170.62 232.823 170.906 232.84 171.194C232.883 171.841 232.778 172.49 232.534 173.09C232.231 173.769 231.761 174.36 231.168 174.808C230.575 175.256 229.878 175.546 229.142 175.652C228.359 175.752 227.568 175.541 226.939 175.063C226.365 174.618 225.952 173.998 225.762 173.296C225.591 172.668 225.591 172.005 225.762 171.377C225.922 170.837 226.197 170.339 226.568 169.916C227.107 169.316 227.793 168.868 228.559 168.615C228.764 168.546 228.975 168.493 229.189 168.456C229.336 168.456 229.413 168.456 229.413 168.456C229.413 168.456 229.112 168.532 228.6 168.738C227.879 169.024 227.238 169.481 226.733 170.069C226.395 170.475 226.148 170.949 226.009 171.459C225.852 172.038 225.852 172.647 226.009 173.226C226.181 173.864 226.555 174.43 227.075 174.839C227.643 175.265 228.355 175.451 229.059 175.358C229.741 175.257 230.387 174.99 230.94 174.579C231.493 174.167 231.935 173.626 232.228 173.002C232.463 172.444 232.57 171.84 232.54 171.235C232.545 170.712 232.409 170.197 232.145 169.745C231.881 169.399 231.543 169.115 231.156 168.915C230.863 168.757 230.552 168.632 230.231 168.544C229.974 168.464 229.705 168.429 229.436 168.438Z" fill="#263238"/>
<path d="M73.864 55.2008H33.3662C32.3838 55.2008 31.4417 55.5911 30.747 56.2857C30.0524 56.9804 29.6621 57.9225 29.6621 58.9049V99.4027C29.6621 100.385 30.0524 101.327 30.747 102.022C31.4417 102.717 32.3838 103.107 33.3662 103.107H61.3855L72.6568 112.388V103.107H73.864C74.8464 103.107 75.7885 102.717 76.4832 102.022C77.1778 101.327 77.5681 100.385 77.5681 99.4027V58.9049C77.5681 57.9225 77.1778 56.9804 76.4832 56.2857C75.7885 55.5911 74.8464 55.2008 73.864 55.2008Z" fill="white"/>
<path d="M33.8138 55.2009H74.0348C74.9719 55.2009 75.8706 55.5732 76.5333 56.2358C77.1959 56.8984 77.5682 57.7971 77.5682 58.7342V70.1881C77.5682 70.224 77.5539 70.2585 77.5285 70.2839C77.5031 70.3093 77.4686 70.3235 77.4327 70.3235H29.7976C29.7617 70.3235 29.7272 70.3093 29.7018 70.2839C29.6764 70.2585 29.6622 70.224 29.6622 70.1881V59.3467C29.659 58.8009 29.7643 58.2599 29.9719 57.7551C30.1795 57.2503 30.4853 56.7918 30.8715 56.4061C31.2578 56.0204 31.7167 55.7153 32.2218 55.5084C32.7269 55.3015 33.268 55.197 33.8138 55.2009Z" fill="#4A788D"/>
<path d="M50.3262 77.4667V93.7494H46.5573V80.4877H43.3008V77.4667H50.3262Z" fill="#263238"/>
<path d="M65.92 77.4667V79.9047L59.8721 93.7494H55.7499L61.5917 80.5348H56.1916V83.1848H52.8408V77.4667H65.92Z" fill="#263238"/>
<path d="M60.308 63.7807C60.308 63.8691 57.0161 63.9338 52.9587 63.9338C48.9013 63.9338 45.6035 63.8691 45.6035 63.7807C45.6035 63.6924 48.8954 63.6158 52.9646 63.6158C57.0338 63.6158 60.308 63.6983 60.308 63.7807Z" fill="#263238"/>
<path d="M73.8639 55.2008H74.1171C74.3639 55.2113 74.6088 55.2488 74.8474 55.3127C75.7949 55.5623 76.6056 56.1761 77.1028 57.0205C77.4638 57.6374 77.6434 58.3436 77.621 59.058C77.621 59.8354 77.621 60.6775 77.621 61.5844C77.621 63.4099 77.621 65.5005 77.621 67.8442C77.621 72.5259 77.621 78.2028 77.6505 84.6864C77.6505 87.9312 77.6505 91.3821 77.6505 95.0155C77.6505 95.9224 77.6505 96.841 77.6505 97.7715V99.173C77.6675 99.6615 77.6018 100.149 77.4561 100.616C77.2185 101.335 76.7724 101.966 76.1747 102.431C75.577 102.895 74.8546 103.172 74.0995 103.225C73.5871 103.254 73.1101 103.225 72.6096 103.225L72.745 103.089C72.745 106.034 72.745 109.149 72.745 112.37V112.67L72.5095 112.476L61.2382 103.207L61.3324 103.236H33.319C32.8826 103.227 32.4507 103.146 32.0411 102.995C31.216 102.696 30.5192 102.122 30.0684 101.37C29.8453 101.006 29.6842 100.608 29.5914 100.192C29.5205 99.7737 29.4929 99.3494 29.5089 98.9257V91.5882C29.5089 85.1457 29.5089 78.933 29.5089 73.0147C29.5089 70.0702 29.5089 67.167 29.5089 64.3639C29.5089 62.9624 29.5089 61.5883 29.5089 60.2417C29.4826 59.5597 29.5063 58.8768 29.5796 58.1983C29.7077 57.522 30.0144 56.8923 30.468 56.3745C30.9215 55.8568 31.5054 55.4698 32.1589 55.2538C32.7913 55.0814 33.4485 55.0177 34.1022 55.0654H37.8417H44.8671L66.067 55.1125H71.8322H73.328C73.6696 55.1125 73.8404 55.1125 73.8404 55.1125H73.328H71.8322L66.067 55.1419L44.8671 55.1949H34.1199C33.4941 55.149 32.865 55.2088 32.259 55.3716C31.6414 55.615 31.1019 56.0222 30.6985 56.5494C30.2707 57.0312 29.9799 57.6189 29.8564 58.2513C29.789 58.9144 29.7693 59.5816 29.7975 60.2476V64.3698C29.7975 67.1729 29.7975 70.0643 29.7975 73.0206C29.7975 78.9094 29.7975 85.1516 29.7975 91.5941V98.9493C29.7811 99.3532 29.8068 99.7578 29.874 100.156C29.9976 100.746 30.2697 101.293 30.6644 101.748C31.0591 102.202 31.5634 102.549 32.1295 102.753C32.9219 102.975 33.7479 103.051 34.5675 102.977H61.4207L61.4619 103.007L72.7274 112.293L72.4918 112.405C72.4918 109.184 72.4918 106.051 72.4918 103.124V102.989H72.6331C73.1219 102.989 73.6283 102.989 74.1054 102.989C74.5753 102.953 75.0336 102.825 75.4539 102.612C75.8686 102.403 76.238 102.115 76.5412 101.763C76.8443 101.412 77.0752 101.004 77.2206 100.563C77.3629 100.124 77.4267 99.6635 77.409 99.2025V97.7715C77.409 96.841 77.409 95.9224 77.409 95.0155C77.409 91.3821 77.409 87.9488 77.409 84.6864C77.409 78.2086 77.409 72.5259 77.409 67.8442C77.409 65.4887 77.409 63.4099 77.409 61.5844C77.409 59.7588 77.6446 58.1511 76.9261 57.0676C76.4504 56.2311 75.6627 55.6171 74.7355 55.3598C74.4496 55.2841 74.1581 55.2309 73.8639 55.2008Z" fill="#263238"/>
<path d="M60.761 50.5072H60.6609C59.8283 50.5072 59.1533 51.1822 59.1533 52.0148V59.8175C59.1533 60.6501 59.8283 61.3251 60.6609 61.3251H60.761C61.5936 61.3251 62.2685 60.6501 62.2685 59.8175V52.0148C62.2685 51.1822 61.5936 50.5072 60.761 50.5072Z" fill="#E0E0E0"/>
<path d="M60.7671 61.3252C61.0877 61.2801 61.3916 61.1545 61.6504 60.9601C61.9409 60.7243 62.127 60.3838 62.1686 60.012C62.1686 59.5821 62.1686 59.0462 62.1686 58.4808C62.1686 57.3031 62.1686 55.9663 62.1392 54.4646C62.1392 53.705 62.1392 52.91 62.1392 52.1091C62.1488 51.9161 62.1174 51.7232 62.047 51.5433C61.9766 51.3633 61.8689 51.2003 61.7308 51.0651C61.5928 50.9298 61.4277 50.8254 61.2463 50.7587C61.065 50.692 60.8715 50.6645 60.6787 50.6781C60.4848 50.6788 60.2931 50.7206 60.1165 50.8008C59.9399 50.881 59.7823 50.9977 59.6541 51.1433C59.5311 51.2902 59.4386 51.4601 59.382 51.6431C59.3254 51.8261 59.3058 52.0185 59.3243 52.2092C59.3243 53.0336 59.3243 53.8286 59.3243 54.5648C59.3243 56.0664 59.3243 57.4267 59.3243 58.5869C59.3243 58.8695 59.3243 59.1404 59.3243 59.3995C59.3029 59.6365 59.3029 59.875 59.3243 60.1121C59.3979 60.4783 59.6085 60.8027 59.9132 61.019C60.1871 61.1957 60.5009 61.301 60.826 61.3252C60.7405 61.3428 60.6523 61.3428 60.5669 61.3252C60.3114 61.3128 60.0637 61.2337 59.8484 61.0955C59.502 60.8727 59.2551 60.5245 59.1594 60.1238C59.1217 59.8764 59.1079 59.626 59.1182 59.376C59.1182 59.1168 59.1182 58.846 59.1182 58.5633C59.1182 57.3855 59.1182 56.0429 59.0829 54.5412C59.0829 53.7874 59.0829 52.9924 59.0829 52.1856C59.062 51.9586 59.0867 51.7296 59.1555 51.5122C59.2242 51.2948 59.3357 51.0933 59.4833 50.9195C59.6374 50.7365 59.8293 50.5891 60.0459 50.4875C60.2624 50.3858 60.4984 50.3323 60.7376 50.3306C60.9737 50.315 61.2103 50.35 61.4317 50.4333C61.6532 50.5165 61.8542 50.6462 62.0215 50.8134C62.1888 50.9807 62.3184 51.1818 62.4017 51.4032C62.4849 51.6246 62.5199 51.8613 62.5043 52.0973C62.5043 52.9159 62.5043 53.7109 62.5043 54.4529C62.5043 55.9545 62.5043 57.309 62.469 58.4691C62.469 59.058 62.469 59.5467 62.4277 60.0237C62.4026 60.2243 62.3375 60.4177 62.2364 60.5927C62.1352 60.7677 62.0001 60.9206 61.8389 61.0425C61.6367 61.1963 61.3965 61.292 61.144 61.3193C61.0235 61.3685 60.889 61.3706 60.7671 61.3252Z" fill="#263238"/>
<path d="M46.1394 50.5072H46.0393C45.2067 50.5072 44.5317 51.1822 44.5317 52.0148V59.8175C44.5317 60.6501 45.2067 61.3251 46.0393 61.3251H46.1394C46.972 61.3251 47.647 60.6501 47.647 59.8175V52.0148C47.647 51.1822 46.972 50.5072 46.1394 50.5072Z" fill="#E0E0E0"/>
<path d="M46.139 61.3251C46.4618 61.2816 46.768 61.1558 47.0282 60.96C47.3187 60.7243 47.5048 60.3837 47.5464 60.0119C47.5464 59.582 47.5464 59.0461 47.5464 58.4808C47.5464 57.303 47.5464 55.9663 47.5111 54.4646C47.5111 53.7049 47.5111 52.9099 47.5111 52.109C47.5207 51.916 47.4893 51.7232 47.4189 51.5432C47.3485 51.3633 47.2408 51.2003 47.1028 51.065C46.9647 50.9298 46.7996 50.8254 46.6182 50.7587C46.4369 50.6919 46.2434 50.6645 46.0507 50.678C45.8566 50.6784 45.6649 50.72 45.4882 50.8003C45.3115 50.8805 45.154 50.9974 45.026 51.1433C44.902 51.2897 44.8084 51.4594 44.7508 51.6424C44.6931 51.8254 44.6726 52.0181 44.6903 52.2092C44.6903 53.0336 44.6903 53.8286 44.6903 54.5647C44.6903 56.0664 44.6903 57.4267 44.655 58.5868C44.655 58.8695 44.655 59.1403 44.655 59.3995C44.6334 59.6365 44.6334 59.875 44.655 60.112C44.7263 60.4792 44.9374 60.8044 45.2439 61.0189C45.5155 61.1959 45.8275 61.3013 46.1508 61.3251C46.1508 61.3251 46.0683 61.3251 45.8917 61.3251C45.6381 61.3126 45.3923 61.2334 45.1791 61.0955C44.8309 60.8745 44.5835 60.5255 44.4901 60.1238C44.4533 59.8763 44.4376 59.6261 44.443 59.3759C44.443 59.1168 44.443 58.8459 44.443 58.5632C44.443 57.3855 44.443 56.0428 44.443 54.5411C44.443 53.7874 44.443 52.9924 44.443 52.1856C44.4084 51.7267 44.5542 51.2725 44.8493 50.9195C45.0032 50.7362 45.195 50.5886 45.4116 50.4869C45.6282 50.3852 45.8644 50.3319 46.1037 50.3306C46.3395 50.316 46.5757 50.3516 46.7967 50.4352C47.0177 50.5188 47.2183 50.6484 47.3854 50.8155C47.5525 50.9826 47.6821 51.1833 47.7657 51.4042C47.8493 51.6252 47.885 51.8614 47.8703 52.0973C47.8703 52.9158 47.8703 53.7108 47.8703 54.4528C47.8703 55.9545 47.8703 57.3089 47.8703 58.469C47.8703 59.0579 47.8703 59.5467 47.8291 60.0237C47.7739 60.4273 47.5624 60.7931 47.2402 61.0425C47.0375 61.1952 46.7975 61.2908 46.5453 61.3192C46.4159 61.3745 46.27 61.3766 46.139 61.3251Z" fill="#263238"/>
<g opacity="0.3">
<path opacity="0.3" d="M42.7473 55.6541C42.9437 57.5721 42.7601 59.5099 42.2072 61.357C41.6543 63.204 40.7429 64.924 39.525 66.4187C38.307 67.9133 36.8065 69.1533 35.1092 70.0678C33.4119 70.9823 31.5509 71.5533 29.6328 71.7483L30.2217 63.6983L37.518 55.7659L42.7473 55.6541Z" fill="black"/>
</g>
<path d="M29.9157 68.4002C37.2701 66.5461 41.7289 59.0812 39.8748 51.7269C38.0207 44.3726 30.5558 39.9137 23.2014 41.7678C15.8471 43.622 11.3883 51.0869 13.2424 58.4412C15.0965 65.7955 22.5614 70.2543 29.9157 68.4002Z" fill="white"/>
<path d="M26.5412 70.2997C23.6244 70.2979 20.7697 69.4575 18.3172 67.8786C15.8647 66.2998 13.9178 64.0491 12.7086 61.3948C11.4994 58.7405 11.0788 55.7945 11.497 52.9079C11.9152 50.0213 13.1545 47.3158 15.0673 45.1137C16.98 42.9117 19.4855 41.3061 22.2853 40.4881C25.085 39.6702 28.0609 39.6745 30.8582 40.5004C33.6556 41.3264 36.1565 42.9392 38.0629 45.1467C39.9694 47.3542 41.2009 50.0633 41.6108 52.9511C42.1724 56.9445 41.1278 60.9977 38.7059 64.2221C36.2839 67.4465 32.6824 69.5792 28.6906 70.1525C27.9784 70.2507 27.2602 70.2999 26.5412 70.2997ZM26.5765 42.8399C25.9854 42.8392 25.3951 42.8806 24.8099 42.9636C22.4128 43.3077 20.1715 44.3547 18.3692 45.9721C16.5669 47.5896 15.2846 49.705 14.6841 52.0511C14.0837 54.3971 14.1921 56.8685 14.9958 59.1529C15.7994 61.4374 17.2622 63.4323 19.1992 64.8857C21.1362 66.3391 23.4606 67.1857 25.8786 67.3185C28.2966 67.4514 30.6998 66.8645 32.7843 65.632C34.8689 64.3995 36.5414 62.5768 37.5904 60.3942C38.6395 58.2115 39.018 55.7669 38.6782 53.3692C38.2646 50.4522 36.8134 47.7819 34.5907 45.848C32.368 43.9141 29.5228 42.8461 26.5765 42.8399Z" fill="#455A64"/>
<path d="M26.5764 42.8401C26.6429 42.8308 26.7102 42.8308 26.7767 42.8401C26.9062 42.8401 27.1005 42.8401 27.3655 42.8401C28.1165 42.8736 28.8622 42.9821 29.5915 43.164C30.7487 43.4477 31.8579 43.9001 32.8834 44.5066C34.2497 45.3119 35.449 46.3713 36.4167 47.6277C37.5872 49.1566 38.3801 50.9403 38.7311 52.8335C38.8214 53.35 38.8843 53.8709 38.9195 54.394C38.9343 54.6628 38.9343 54.9321 38.9195 55.2008C38.9195 55.4717 38.9195 55.7485 38.9195 56.0253C38.8252 57.1559 38.5877 58.2699 38.2129 59.3407C37.774 60.4568 37.1899 61.5102 36.4756 62.4736C35.7244 63.4653 34.8384 64.3473 33.8433 65.0941C31.7157 66.6534 29.1465 67.4941 26.5087 67.4941C23.8709 67.4941 21.3017 66.6534 19.1741 65.0941C17.1959 63.6402 15.6969 61.6286 14.8694 59.3171C14.5033 58.2315 14.2777 57.1034 14.198 55.9605C14.123 54.8929 14.1863 53.8201 14.3865 52.7687C14.8279 50.4505 15.9289 48.309 17.5574 46.6011C19.1859 44.8932 21.2726 43.6916 23.5672 43.1404C24.0442 43.0344 24.4741 42.9579 24.8451 42.9107L25.7932 42.8577H26.3821H26.5823L26.3821 42.8872L25.7932 42.9402L24.851 43.0226C24.48 43.0815 24.0619 43.164 23.5908 43.2817C22.4508 43.5782 21.3584 44.0342 20.346 44.6362C19.0165 45.4378 17.8498 46.4827 16.9069 47.7161C15.7637 49.2181 14.9873 50.9664 14.6397 52.8217C14.4457 53.852 14.3883 54.9034 14.4689 55.9487C14.5596 57.0533 14.7912 58.1417 15.1579 59.1876C15.5678 60.2801 16.1203 61.3137 16.8009 62.2616C17.546 63.2296 18.4197 64.0915 19.3979 64.8232C21.4751 66.3403 23.9807 67.1579 26.5529 67.1579C29.1251 67.1579 31.6307 66.3403 33.7079 64.8232C35.6439 63.4107 37.1174 61.4555 37.942 59.2053C38.3177 58.161 38.5552 57.0722 38.6486 55.9664C38.684 55.7014 38.6486 55.4305 38.6486 55.1655C38.6633 54.9027 38.6633 54.6392 38.6486 54.3764C38.5956 53.8582 38.5721 53.3399 38.472 52.8394C38.1346 50.9826 37.3684 49.2303 36.2342 47.722C34.5712 45.5269 32.2231 43.9498 29.5621 43.2405C28.8406 43.0507 28.1035 42.9265 27.3597 42.8695C26.8473 42.8519 26.5764 42.8577 26.5764 42.8401Z" fill="#263238"/>
<path d="M26.5412 70.3H26.7886L27.507 70.2588C27.825 70.2588 28.2137 70.194 28.6848 70.1234L30.2571 69.7995C31.6688 69.4172 33.0233 68.8489 34.2851 68.1094C35.9398 67.1013 37.3918 65.7932 38.5663 64.2522C39.9796 62.3766 40.9409 60.2001 41.3753 57.8922C41.4434 57.5816 41.4906 57.2668 41.5166 56.95C41.5166 56.632 41.5873 56.314 41.6167 55.9901C41.6462 55.6662 41.6167 55.3364 41.6167 55.0066V54.5061L41.5696 54.0055C41.4785 52.6276 41.193 51.2696 40.7216 49.9716C39.6602 47.0729 37.7371 44.5684 35.2106 42.7946C32.6841 41.0208 29.6753 40.0626 26.5883 40.0489C23.4931 40.0415 20.4708 40.9886 17.9332 42.7611C15.3957 44.5336 13.4663 47.0453 12.4079 49.954C11.4753 52.4796 11.2453 55.2109 11.7425 57.8568C11.9599 59.0543 12.3217 60.221 12.8201 61.3313C13.0599 61.8516 13.3272 62.3588 13.621 62.8506L14.0568 63.5632L14.5456 64.2168C15.7055 65.7664 17.153 67.078 18.8091 68.0799C20.0668 68.8277 21.4225 69.3965 22.8371 69.77C23.3518 69.9098 23.8751 70.016 24.4036 70.088C24.7928 70.1595 25.1862 70.2067 25.5813 70.2294L26.3057 70.2765H26.553C26.4709 70.2869 26.3878 70.2869 26.3057 70.2765H25.5813C25.1868 70.2672 24.7934 70.2318 24.4036 70.1705C23.8711 70.1076 23.3437 70.0072 22.8253 69.8701C19.4549 69.0536 16.4699 67.0982 14.3748 64.3346L13.8801 63.6751L13.4326 62.9566C13.1309 62.4591 12.8557 61.9461 12.6081 61.4196C12.0995 60.2902 11.7278 59.104 11.501 57.8863C10.975 55.1921 11.1907 52.4056 12.1253 49.8244C13.1962 46.8545 15.1591 44.2883 17.745 42.4772C20.331 40.6661 23.4136 39.6986 26.5707 39.7073C29.7255 39.7095 32.803 40.6836 35.3845 42.497C37.966 44.3104 39.9262 46.8751 40.9984 49.8421C41.4781 51.1684 41.7656 52.5565 41.8523 53.9643L41.8935 54.4707V54.9772C41.8935 55.3129 41.8935 55.6485 41.8935 55.9783C41.8935 56.3081 41.8228 56.6378 41.7875 56.9617C41.7624 57.283 41.7132 57.6019 41.6403 57.9157C41.1887 60.259 40.2011 62.4659 38.7547 64.3641C37.5552 65.9155 36.075 67.2279 34.3911 68.233C33.1098 68.9681 31.735 69.5267 30.3042 69.8937L28.7142 70.194C28.2549 70.2529 27.8603 70.2824 27.5364 70.2941C27.2126 70.3059 26.9475 70.2941 26.8121 70.2941C26.6767 70.2941 26.5412 70.3 26.5412 70.3Z" fill="#263238"/>
<path d="M33.741 36.1166L32.4863 38.1288L40.5553 43.16L41.8099 41.1478L33.741 36.1166Z" fill="#455A64"/>
<path d="M40.321 43.27C40.4134 43.0677 40.5176 42.8711 40.6331 42.6811L41.4988 41.2383V41.3679C39.6732 40.2667 36.7229 38.4529 33.4193 36.3859L33.6313 36.3388V36.3741L33.59 36.4389L33.5076 36.5625L33.3486 36.8217L33.0306 37.3281C32.8265 37.6618 32.6302 37.9916 32.4417 38.3174L32.3946 38.1113C34.6618 39.5364 36.6346 40.8025 38.0597 41.733L39.7439 42.8342C39.9477 42.969 40.1443 43.1145 40.3328 43.27C40.129 43.174 39.9322 43.0638 39.7439 42.9402L38.042 41.9273C36.5934 41.0558 34.544 39.8132 32.2179 38.394L32.0884 38.3115L32.1708 38.1879L32.7597 37.1927L33.0777 36.6862L33.2367 36.433L33.3192 36.3034L33.3604 36.2387V36.2092L33.5665 36.1621C36.876 38.2291 39.7969 40.0841 41.5871 41.2442L41.6637 41.2972L41.6166 41.3738C41.1926 42.0215 40.8569 42.5162 40.6331 42.8519C40.5394 42.9987 40.4351 43.1384 40.321 43.27Z" fill="#263238"/>
<path d="M14.1204 39.4689L7.52344 46.9755L9.30165 48.5382L15.8986 41.0317L14.1204 39.4689Z" fill="#455A64"/>
<path d="M9.31019 48.5345C9.31019 48.5345 9.48686 48.2989 9.80486 47.9103L11.1534 46.2908C12.3312 44.9305 13.9212 43.0519 15.7703 40.9319V41.1439L14.0036 39.5834H14.2215L14.1862 39.6246L14.1214 39.6953L13.9977 39.8366L13.7445 40.1252L13.244 40.7141L12.2664 41.8271L10.4585 43.8646L7.62008 47.0328V46.9033C8.13242 47.3803 8.55053 47.7748 8.8803 48.081C9.21008 48.3873 9.33963 48.5286 9.33963 48.5404C9.16925 48.4365 9.00948 48.3162 8.86264 48.1811C8.55053 47.9279 8.0853 47.5452 7.50231 47.0446L7.43164 46.9857L7.49053 46.9209L10.2819 43.6703L12.0485 41.6209C12.3606 41.2558 12.6845 40.8907 13.0143 40.5138C13.1733 40.3254 13.3441 40.137 13.509 39.925L13.7622 39.6364L13.8858 39.4951L13.9506 39.4185L13.986 39.3832H14.2038L15.9705 40.9496L16.0824 41.0497L15.9823 41.1616C14.0743 43.3169 12.3901 45.1896 11.1887 46.5087L9.7813 48.0457C9.63447 48.2182 9.47713 48.3814 9.31019 48.5345Z" fill="#263238"/>
<path d="M20.564 56.2901L21.7359 54.0641L25.9228 55.9544L30.4278 47.7512L32.536 48.9643L26.7002 59.3111L20.564 56.2901Z" fill="#455A64"/>
<path d="M26.706 59.3289L20.5757 56.2962L21.7535 54.0525L25.9169 55.9605L30.4219 47.7161L32.5419 48.9351L26.706 59.3289ZM20.5757 56.2844L26.6883 59.2877L32.5124 48.9704L30.4278 47.7926L25.9287 55.9605L21.7535 54.0819L20.5757 56.2844Z" fill="#263238"/>
<path d="M18.3731 72.043C18.1493 71.9781 17.9338 71.8872 17.7312 71.7721C17.4939 71.6588 17.2638 71.531 17.0422 71.3893C16.7258 71.2094 16.4192 71.0128 16.1235 70.8005C15.3412 70.2768 14.6062 69.6857 13.927 69.0338C13.0977 68.2339 12.3446 67.3586 11.6774 66.4191C11.0233 65.4719 10.4576 64.4666 9.98732 63.4158C9.61354 62.5531 9.31217 61.6608 9.08633 60.7482C8.99523 60.3989 8.9225 60.0451 8.86844 59.6882C8.81357 59.422 8.77619 59.1525 8.75655 58.8814C8.72126 58.6535 8.70942 58.4227 8.72121 58.1924C8.7801 58.1924 8.87432 59.1699 9.3101 60.6952C9.56044 61.5853 9.87737 62.4554 10.2582 63.298C10.7342 64.326 11.2976 65.3111 11.9424 66.2425C12.5854 67.1754 13.3065 68.0521 14.0978 68.863C14.761 69.5045 15.4716 70.095 16.2236 70.6297C17.5074 71.566 18.4025 71.99 18.3731 72.043Z" fill="#263238"/>
<path d="M11.4243 68.9161C11.0487 68.5836 10.7181 68.2035 10.4409 67.7854C9.72587 66.8076 9.10105 65.7669 8.57413 64.6761C8.04854 63.58 7.62853 62.4363 7.31981 61.2605C7.15633 60.7854 7.05922 60.29 7.03125 59.7883C7.21903 60.2492 7.37834 60.7212 7.50825 61.2017C7.87319 62.3408 8.31387 63.4544 8.82736 64.5348C9.34877 65.6081 9.93889 66.6467 10.594 67.6441C10.9012 68.0475 11.1787 68.4726 11.4243 68.9161Z" fill="#263238"/>
<path d="M192.625 59.4066L199.25 47.7172C195.159 41.069 193.702 33.131 195.166 25.4634C196.63 17.7957 200.909 10.9529 207.162 6.27994C213.415 1.607 221.19 -0.558132 228.958 0.21009C236.727 0.978313 243.927 4.62434 249.143 10.4315C254.36 16.2387 257.216 23.7871 257.15 31.593C257.084 39.399 254.1 46.8979 248.786 52.6159C243.472 58.3339 236.211 61.8575 228.431 62.494C220.651 63.1305 212.914 60.834 206.741 56.0558L192.625 59.4066Z" fill="#FAFAFA"/>
<path d="M192.625 59.4057L206.758 56.0078L206.717 56.1256C206.71 56.1189 206.704 56.1108 206.699 56.1017C206.695 56.0925 206.693 56.0826 206.693 56.0726C206.693 56.0626 206.695 56.0526 206.699 56.0435C206.704 56.0344 206.71 56.0262 206.717 56.0196C206.73 56.008 206.747 56.0016 206.764 56.0016C206.782 56.0016 206.798 56.008 206.811 56.0196C208.791 57.537 210.941 58.8177 213.218 59.8356C215.926 61.0355 218.792 61.8425 221.728 62.2323C223.355 62.4515 224.998 62.5303 226.639 62.4679C227.481 62.4149 228.341 62.3913 229.207 62.3148L231.821 61.9143C239.594 60.3633 246.489 55.9204 251.113 49.4829C253.683 45.917 255.462 41.8433 256.331 37.5344C257.217 32.9789 257.088 28.2841 255.954 23.7839C255.801 23.195 255.671 22.6061 255.5 22.0643L254.912 20.386C254.493 19.2597 254.005 18.1603 253.451 17.0941C253.185 16.5523 252.886 16.0272 252.556 15.5218C252.238 15.0036 251.932 14.4795 251.602 13.9671L250.507 12.5008L249.959 11.7647C249.777 11.5174 249.553 11.3054 249.37 11.0757L248.11 9.68592C247.692 9.2207 247.197 8.83793 246.75 8.40804L246.061 7.78382C245.837 7.57174 245.599 7.375 245.348 7.19493L243.864 6.08782C243.617 5.91116 243.381 5.70504 243.116 5.55193L242.327 5.06905L240.761 4.12094L239.124 3.32005C238.586 3.04102 238.031 2.79519 237.463 2.58394C233.065 0.841126 228.331 0.11052 223.612 0.446284C219.137 0.72242 214.777 1.98319 210.845 4.13861C203.808 8.04886 198.539 14.5089 196.123 22.188C195.156 25.4574 194.691 28.8548 194.745 32.2639C194.82 35.2251 195.32 38.1602 196.229 40.9794C196.99 43.3373 198.023 45.5983 199.309 47.7163C199.317 47.7274 199.321 47.7408 199.321 47.7545C199.321 47.7683 199.317 47.7817 199.309 47.7928L192.625 59.4292C192.878 58.9699 194.981 55.2422 199.185 47.7163V47.7928C197.886 45.6742 196.839 43.4113 196.064 41.0501C195.134 38.2163 194.621 35.2627 194.539 32.2815C194.473 28.8479 194.932 25.4243 195.899 22.1291C198.316 14.37 203.62 7.83503 210.716 3.87361C214.666 1.68569 219.048 0.391109 223.553 0.0811726C228.319 -0.259508 233.101 0.475064 237.545 2.23061C238.117 2.44584 238.676 2.69559 239.218 2.9785C239.765 3.2435 240.325 3.50261 240.873 3.77938L242.457 4.73927L243.252 5.22216C243.517 5.38116 243.752 5.58727 244.005 5.76983L245.507 6.88871C245.759 7.06872 245.999 7.26545 246.226 7.4776L246.92 8.10771C247.374 8.54349 247.874 8.93215 248.293 9.40326L249.565 10.8048C249.771 11.0404 249.994 11.2524 250.153 11.4997L250.707 12.2417L251.814 13.7257C252.15 14.238 252.456 14.768 252.78 15.2921C253.111 15.8042 253.412 16.3351 253.681 16.8821C254.241 17.957 254.733 19.0663 255.153 20.2035C255.361 20.7766 255.567 21.342 255.771 21.8995C255.942 22.4883 256.078 23.0772 256.231 23.6661C257.375 28.209 257.502 32.9486 256.602 37.5462C255.715 41.8981 253.908 46.0101 251.302 49.6066C246.634 56.1104 239.66 60.5882 231.804 62.1263L229.165 62.5268C228.294 62.6033 227.428 62.621 226.58 62.6681C224.927 62.7355 223.272 62.6527 221.634 62.4208C218.702 62.0197 215.843 61.2027 213.142 59.9946C210.856 58.9608 208.7 57.6622 206.717 56.1256L206.823 56.0196C206.837 56.0348 206.845 56.0548 206.845 56.0755C206.845 56.0963 206.837 56.1162 206.823 56.1315H206.794L192.625 59.4057Z" fill="#263238"/>
<path d="M229.389 17.0062L228.347 33.495C228.305 34.147 228.026 34.7612 227.563 35.2222C227.1 35.6831 226.484 35.9589 225.832 35.9978C225.151 36.04 224.479 35.8193 223.955 35.3811C223.431 34.9428 223.096 34.3205 223.017 33.6422L221.186 17.0709C221.15 16.7734 221.178 16.4715 221.268 16.1856C221.358 15.8997 221.508 15.6364 221.708 15.4133C221.908 15.1902 222.154 15.0125 222.428 14.8922C222.703 14.7718 223 14.7115 223.3 14.7154L227.322 14.7743C227.606 14.7785 227.887 14.8404 228.147 14.9562C228.406 15.0719 228.64 15.2392 228.833 15.4479C229.026 15.6565 229.175 15.9022 229.271 16.17C229.366 16.4379 229.406 16.7223 229.389 17.0062Z" fill="#4A788D"/>
<path d="M222.329 45.2725C222.579 46.029 223.048 46.6943 223.676 47.1843C224.305 47.6742 225.064 47.9667 225.859 48.0249C226.654 48.083 227.448 47.9041 228.141 47.5109C228.834 47.1176 229.395 46.5277 229.752 45.8156C230.11 45.1036 230.248 44.3015 230.15 43.5107C230.052 42.72 229.721 41.9762 229.2 41.3734C228.679 40.7706 227.991 40.3359 227.223 40.1243C226.454 39.9126 225.641 39.9336 224.884 40.1846C223.872 40.5221 223.035 41.247 222.556 42.2007C222.077 43.1543 221.995 44.2589 222.329 45.2725Z" fill="#4A788D"/>
</svg>
