<svg width="118" height="105" viewBox="0 0 118 105" fill="none" xmlns="http://www.w3.org/2000/svg">
<g clip-path="url(#clip0)">
<path d="M58.9503 24.0381L14.7722 62.9964C14.4447 63.2916 14.0262 63.429 13.6664 63.6736V101.061C13.6664 101.919 14.0071 102.742 14.6137 103.348C15.2203 103.955 16.0431 104.296 16.9009 104.296H101C101.858 104.296 102.68 103.955 103.287 103.348C103.893 102.742 104.234 101.919 104.234 101.061V63.6817C103.891 63.4472 103.482 63.3138 103.171 63.0348L58.9503 24.0381ZM78.3577 76.8019C78.3577 77.2309 78.1873 77.6422 77.884 77.9455C77.5807 78.2488 77.1693 78.4192 76.7404 78.4192H65.4194V89.7402C65.4194 90.1691 65.249 90.5805 64.9457 90.8838C64.6424 91.1871 64.2311 91.3575 63.8022 91.3575H54.0984C53.6695 91.3575 53.2582 91.1871 52.9549 90.8838C52.6516 90.5805 52.4812 90.1691 52.4812 89.7402V78.4192H41.1602C40.7312 78.4192 40.3199 78.2488 40.0166 77.9455C39.7133 77.6422 39.5429 77.2309 39.5429 76.8019V67.0982C39.5429 66.6693 39.7133 66.2579 40.0166 65.9547C40.3199 65.6513 40.7312 65.481 41.1602 65.481H52.4812V54.16C52.4812 53.731 52.6516 53.3197 52.9549 53.0164C53.2582 52.7131 53.6695 52.5427 54.0984 52.5427H63.8022C64.2311 52.5427 64.6424 52.7131 64.9457 53.0164C65.249 53.3197 65.4194 53.731 65.4194 54.16V65.481H76.7404C77.1693 65.481 77.5807 65.6513 77.884 65.9547C78.1873 66.2579 78.3577 66.6693 78.3577 67.0982V76.8019ZM116.099 48.5561L64.3581 2.86782C62.8772 1.52891 60.9518 0.787598 58.9554 0.787598C56.9589 0.787598 55.0336 1.52891 53.5526 2.86782L1.79954 48.5561C1.4834 48.84 1.22629 49.1833 1.0429 49.5666C0.859501 49.9499 0.753416 50.3655 0.7307 50.7898C0.707984 51.2141 0.769083 51.6387 0.910505 52.0394C1.05193 52.44 1.2709 52.8089 1.55492 53.1249L5.88318 57.9404C6.16706 58.2565 6.51044 58.5136 6.89371 58.697C7.27698 58.8804 7.69263 58.9865 8.11691 59.0092C8.54119 59.0319 8.96579 58.9708 9.36646 58.8294C9.76712 58.688 10.136 58.469 10.452 58.185L56.8114 17.292C57.4024 16.7706 58.1633 16.483 58.9513 16.483C59.7393 16.483 60.5002 16.7706 61.0912 17.292L107.451 58.183C107.767 58.467 108.135 58.686 108.536 58.8274C108.937 58.9688 109.361 59.0299 109.786 59.0072C110.21 58.9845 110.626 58.8784 111.009 58.695C111.392 58.5116 111.736 58.2545 112.019 57.9384L116.346 53.1229C116.918 52.4845 117.214 51.6448 117.168 50.7884C117.122 49.932 116.737 49.1291 116.099 48.5561Z" fill="#333366"/>
</g>
<defs>
<clipPath id="clip0">
<rect width="116.444" height="103.506" fill="white" transform="translate(0.728516 0.790039)"/>
</clipPath>
</defs>
</svg>
